<svg xmlns="http://www.w3.org/2000/svg" xmlns:xlink="http://www.w3.org/1999/xlink" xmlns:lucid="lucid" width="1607" height="779"><g transform="translate(-112 -1213)" lucid:page-tab-id="2RBwiM100YPI"><g fill="none"><path d="M275.8 1543.73a6 6 0 0 1-6 6h-23.45a6 6 0 0 1-6-6v-276.06a6 6 0 0 1 6-6h23.45a6 6 0 0 1 6 6z"/><path d="M275.8 1261.67c-5.52 0-10 4.47-10 10v124.03c0 5.52-4.47 10-10 10 5.53 0 10 4.48 10 10v124.03c0 5.52 4.48 10 10 10" stroke="#282c33" stroke-width="2"/></g><path d="M72.97 1383.15a6 6 0 0 1 6-6h228a6 6 0 0 1 6 6v48a6 6 0 0 1-6 6h-228a6 6 0 0 1-6-6z" fill="none"/><use xlink:href="#a" transform="matrix(1,0,0,1,72.96533442086854,1377.1503534529668) translate(64.48148148148147 35.333333333333336)"/><path d="M-20 1675.67a6 6 0 0 1 6-6h482.58a6 6 0 0 1 6 6v37.57a6 6 0 0 1-6 6H-14a6 6 0 0 1-6-6z" fill="none"/><use xlink:href="#b" transform="matrix(1,0,0,1,-20.000000000000256,1669.6666666666663) translate(220.9074074074074 30.333333333333336)"/><path d="M333.3 1268.24a7.8 7.8 0 0 1 7.54-5.8h190.5a4.6 4.6 0 0 1 4.45 5.8l-23.76 89.07a7.8 7.8 0 0 1-7.55 5.8H314a4.6 4.6 0 0 1-4.45-5.8z" stroke="#3a414a" stroke-width="2" fill="#fff3d9"/><use xlink:href="#c" transform="matrix(1,0,0,1,312.9999999999999,1267.4426318651442) translate(29.2087037037037 35.552083333333336)"/><use xlink:href="#d" transform="matrix(1,0,0,1,312.9999999999999,1267.4426318651442) translate(98.61611111111112 35.552083333333336)"/><use xlink:href="#e" transform="matrix(1,0,0,1,312.9999999999999,1267.4426318651442) translate(29.48648148148147 67.55208333333334)"/><use xlink:href="#f" transform="matrix(1,0,0,1,312.9999999999999,1267.4426318651442) translate(96.15314814814815 67.55208333333334)"/><path d="M671.2 1256.38a8 8 0 0 1 9.6 0l70.4 52.8a4.5 4.5 0 0 1 0 7.2l-70.4 52.8a8 8 0 0 1-9.6 0l-70.4-52.8a4.5 4.5 0 0 1 0-7.2z" stroke="#3a414a" fill="#c3f7c8"/><use xlink:href="#g" transform="matrix(1,0,0,1,600.9999999999999,1257.7759651984775) translate(29.1377160493827 49.56555555555556)"/><use xlink:href="#h" transform="matrix(1,0,0,1,600.9999999999999,1257.7759651984775) translate(42.44635802469136 78.89888888888889)"/><path d="M525.45 1312.78h56.67" stroke="#3a414a" fill="none"/><path d="M525.46 1313.25h-.64l.25-.95h.4z" stroke="#3a414a" stroke-width=".05" fill="#3a414a"/><path d="M596.88 1312.78l-14.27 4.63v-9.26z" stroke="#3a414a" fill="#3a414a"/><path d="M328.3 1452.24a7.8 7.8 0 0 1 7.54-5.8h190.5a4.6 4.6 0 0 1 4.45 5.8l-23.76 89.07a7.8 7.8 0 0 1-7.55 5.8H309a4.6 4.6 0 0 1-4.45-5.8z" stroke="#3a414a" stroke-width="2" fill="#fff3d9"/><use xlink:href="#i" transform="matrix(1,0,0,1,308.00000000000057,1451.4426318651442) translate(20.3198148148148 35.552083333333336)"/><use xlink:href="#j" transform="matrix(1,0,0,1,308.00000000000057,1451.4426318651442) translate(116.31981481481482 35.552083333333336)"/><use xlink:href="#k" transform="matrix(1,0,0,1,308.00000000000057,1451.4426318651442) translate(36.893888888888874 67.55208333333334)"/><use xlink:href="#f" transform="matrix(1,0,0,1,308.00000000000057,1451.4426318651442) translate(88.74574074074073 67.55208333333334)"/><path d="M523.87 1408.84H423.68l-.88.06-.84.2-.8.34-.74.45-.66.55-.56.66-.45.75-.34.8-.2.85-.06.88v14.68h-.95v-14.72l.07-1 .24-.98.4-.94.53-.87.66-.77.76-.66.87-.53.94-.4.98-.24 1-.08h100.22zm152.6-6.46l-.07 1-.24.98-.4.94-.52.87-.66.77-.77.66-.86.53-.94.4-1 .23-.98.08H569.8v-.95l100.18-.02.88-.07.85-.2.8-.32.75-.45.66-.56.57-.66.45-.73.33-.8.2-.85.07-.88v-30.56h.96z" stroke="#3a414a" stroke-width=".05" fill="#3a414a"/><path d="M676 1371.28l.48-.03v.54h-.96v-.55z" fill="#3a414a"/><path stroke="#3a414a" stroke-width=".05" fill="#3a414a"/><path d="M417.67 1443.83l-4.64-14.27h9.27z" fill="#3a414a"/><path d="M417.67 1445.36l-5.3-16.28h10.6zm-4-15.33l4 12.26 3.98-12.27z" stroke="#3a414a" stroke-width=".05" fill="#3a414a"/><use xlink:href="#l" transform="matrix(1,0,0,1,523.8703703703706,1392.3598278681702) translate(0 21.333333333333336)"/><path d="M567 1452.43a6 6 0 0 1 6-6h149.33a6 6 0 0 1 6 6v88.67a6 6 0 0 1-6 6H573a6 6 0 0 1-6-6z" stroke="#3a414a" fill="#fcfcca"/><use xlink:href="#m" transform="matrix(1,0,0,1,578.9999999999999,1458.4339314845024) translate(9.851851851851862 28.552083333333336)"/><use xlink:href="#n" transform="matrix(1,0,0,1,578.9999999999999,1458.4339314845024) translate(42.407407407407405 60.552083333333336)"/><path d="M328.3 1632.23a7.8 7.8 0 0 1 7.54-5.8h190.5a4.6 4.6 0 0 1 4.45 5.8l-23.76 89.07a7.8 7.8 0 0 1-7.55 5.8H309a4.6 4.6 0 0 1-4.45-5.8z" stroke="#3a414a" stroke-width="2" fill="#fff3d9"/><use xlink:href="#o" transform="matrix(1,0,0,1,308.0000000000001,1631.4339314845024) translate(83.2087037037037 35.552083333333336)"/><use xlink:href="#p" transform="matrix(1,0,0,1,308.0000000000001,1631.4339314845024) translate(90.61611111111111 35.552083333333336)"/><use xlink:href="#k" transform="matrix(1,0,0,1,308.0000000000001,1631.4339314845024) translate(36.893888888888874 67.55208333333334)"/><use xlink:href="#f" transform="matrix(1,0,0,1,308.0000000000001,1631.4339314845024) translate(88.74574074074073 67.55208333333334)"/><path d="M647.67 1548.1v32.42a6 6 0 0 1-6 6h-218a6 6 0 0 0-6 6v16.53" stroke="#3a414a" fill="none"/><path d="M648.14 1548.1h-.95v-.5h.94z" stroke="#3a414a" stroke-width=".05" fill="#3a414a"/><path d="M417.67 1623.82l-4.64-14.27h9.27z" stroke="#3a414a" fill="#3a414a"/><path d="M520.45 1496.78h29.67" stroke="#3a414a" fill="none"/><path d="M520.46 1497.25h-.64l.25-.95h.4z" stroke="#3a414a" stroke-width=".05" fill="#3a414a"/><path d="M564.88 1496.78l-14.26 4.63v-9.26z" stroke="#3a414a" fill="#3a414a"/><path d="M567 1631.62a6 6 0 0 1 6-6h151.63a6 6 0 0 1 6 6v90.1a6 6 0 0 1-6 6H573a6 6 0 0 1-6-6z" stroke="#3a414a" fill="#fcfcca"/><use xlink:href="#q" transform="matrix(1,0,0,1,578.9999999999999,1637.6189253522073) translate(27.074074074074076 28.739583333333336)"/><use xlink:href="#r" transform="matrix(1,0,0,1,578.9999999999999,1637.6189253522073) translate(10.777777777777771 60.739583333333336)"/><path d="M520.45 1676.77h29.67" stroke="#3a414a" fill="none"/><path d="M520.46 1677.24h-.64l.25-.95h.4z" stroke="#3a414a" stroke-width=".05" fill="#3a414a"/><path d="M564.88 1676.77l-14.26 4.63v-9.27z" stroke="#3a414a" fill="#3a414a"/><path d="M857.2 1620.27a8 8 0 0 1 9.6 0l70.4 52.8a4.5 4.5 0 0 1 0 7.2l-70.4 52.8a8 8 0 0 1-9.6 0l-70.4-52.8a4.5 4.5 0 0 1 0-7.2z" stroke="#282c33" stroke-width="2" fill="#c3f7c8"/><use xlink:href="#s" transform="matrix(1,0,0,1,787,1621.6666666666663) translate(26.824074074074062 45.22222222222222)"/><use xlink:href="#t" transform="matrix(1,0,0,1,787,1621.6666666666663) translate(41.76234567901234 74.55555555555556)"/><path d="M1027.3 1534.46a7.8 7.8 0 0 1 7.54-5.8h190.5a4.6 4.6 0 0 1 4.45 5.8l-23.76 89.08a7.8 7.8 0 0 1-7.55 5.8H1008a4.6 4.6 0 0 1-4.45-5.8z" stroke="#3a414a" stroke-width="2" fill="#fff3d9"/><use xlink:href="#u" transform="matrix(1,0,0,1,1006.9999999999999,1533.6666666666663) translate(63.986481481481476 35.552083333333336)"/><use xlink:href="#v" transform="matrix(1,0,0,1,1006.9999999999999,1533.6666666666663) translate(28.042037037037026 67.55208333333334)"/><use xlink:href="#w" transform="matrix(1,0,0,1,1006.9999999999999,1533.6666666666663) translate(140.56055555555554 67.55208333333334)"/><path d="M1027.3 1728.46a7.8 7.8 0 0 1 7.54-5.8h190.5a4.6 4.6 0 0 1 4.45 5.8l-23.76 89.08a7.8 7.8 0 0 1-7.55 5.8H1008a4.6 4.6 0 0 1-4.45-5.8z" stroke="#3a414a" stroke-width="2" fill="#fff3d9"/><use xlink:href="#x" transform="matrix(1,0,0,1,1006.9999999999999,1727.6666666666663) translate(65.43092592592592 35.552083333333336)"/><use xlink:href="#v" transform="matrix(1,0,0,1,1006.9999999999999,1727.6666666666663) translate(28.042037037037026 67.55208333333334)"/><use xlink:href="#w" transform="matrix(1,0,0,1,1006.9999999999999,1727.6666666666663) translate(140.56055555555554 67.55208333333334)"/><path d="M870.12 1579.47h-2.1l-.88.07-.85.2-.8.34-.75.45-.66.56-.57.65-.45.74-.33.8-.2.84-.07.88v32.14h-.96v-32.18l.08-1 .24-.98.4-.94.52-.87.66-.78.77-.66.86-.53.94-.4 1-.23.98-.07h2.14zm127.88 0h-30.4v-.94H998z" stroke="#3a414a" stroke-width=".05" fill="#3a414a"/><path d="M862.48 1617.7l-.48-.04-.48.03v-.55h.96z" fill="#3a414a"/><path stroke="#3a414a" stroke-width=".05" fill="#3a414a"/><path d="M1012.77 1579l-14.27 4.63v-9.27z" fill="#3a414a"/><path d="M1014.3 1579l-16.27 5.3v-10.6zm-15.32 3.98l12.25-3.98-12.25-3.98z" stroke="#3a414a" stroke-width=".05" fill="#3a414a"/><use xlink:href="#y" transform="matrix(1,0,0,1,870.1206241234792,1562.9999999999995) translate(0 21.333333333333336)"/><path d="M862.48 1766.98l.06.88.2.85.34.8.45.75.56.66.65.57.74.45.8.33.84.2.88.08h7.88v.94h-7.92l-1-.07-.98-.24-.94-.4-.87-.52-.78-.66-.66-.77-.53-.86-.4-.94-.23-1-.08-.98v-30.85h.96zm135.52 5.55v.94h-34.84v-.94z" stroke="#3a414a" stroke-width=".05" fill="#3a414a"/><path d="M862 1735.67l.48-.03v.54h-.96v-.54z" fill="#3a414a"/><path stroke="#3a414a" stroke-width=".05" fill="#3a414a"/><path d="M1012.77 1773l-14.27 4.63v-9.27z" fill="#3a414a"/><path d="M1014.3 1773l-16.27 5.3v-10.6zm-15.32 3.98l12.25-3.98-12.25-3.98z" stroke="#3a414a" stroke-width=".05" fill="#3a414a"/><use xlink:href="#z" transform="matrix(1,0,0,1,875.898401901257,1756.9999999999995) translate(0 21.333333333333336)"/><path d="M731.62 1676.67h36" stroke="#3a414a" fill="none"/><path d="M731.64 1677.14h-.52v-.95h.52z" stroke="#3a414a" stroke-width=".05" fill="#3a414a"/><path d="M782.38 1676.67l-14.27 4.63v-9.27z" stroke="#3a414a" fill="#3a414a"/><g fill="none"><path d="M279.23 1819.7a6 6 0 0 1-6 6h-24.46a6 6 0 0 1-6-6v-256.06a6 6 0 0 1 6-6h24.45a6 6 0 0 1 6 6z"/><path d="M279.23 1557.64c-5.53 0-10 4.47-10 10v114.03c0 5.52-4.48 10-10 10 5.52 0 10 4.47 10 10v114.03c0 5.52 4.47 10 10 10" stroke="#282c33" stroke-width="2"/></g><path d="M1336.53 1522.6a8 8 0 0 1 9.6 0l70.4 52.8a4.5 4.5 0 0 1 0 7.2l-70.4 52.8a8 8 0 0 1-9.6 0l-70.4-52.8a4.5 4.5 0 0 1 0-7.2z" stroke="#282c33" stroke-width="2" fill="#c3f7c8"/><use xlink:href="#A" transform="matrix(1,0,0,1,1266.3333333333335,1523.9999999999998) translate(49.23648148148148 33.565555555555555)"/><use xlink:href="#B" transform="matrix(1,0,0,1,1266.3333333333335,1523.9999999999998) translate(21.39697530864196 62.89888888888889)"/><path d="M1219.45 1579h27.5" stroke="#3a414a" fill="none"/><path d="M1219.46 1579.47h-.64l.25-.94h.4z" stroke="#3a414a" stroke-width=".05" fill="#3a414a"/><path d="M1261.7 1579l-14.26 4.63v-9.27z" stroke="#3a414a" fill="#3a414a"/><path d="M1336.53 1717.6a8 8 0 0 1 9.6 0l70.4 52.8a4.5 4.5 0 0 1 0 7.2l-70.4 52.8a8 8 0 0 1-9.6 0l-70.4-52.8a4.5 4.5 0 0 1 0-7.2z" stroke="#282c33" stroke-width="2" fill="#c3f7c8"/><use xlink:href="#A" transform="matrix(1,0,0,1,1266.3333333333333,1718.9999999999998) translate(49.23648148148148 33.565555555555555)"/><use xlink:href="#B" transform="matrix(1,0,0,1,1266.3333333333333,1718.9999999999998) translate(21.39697530864196 62.89888888888889)"/><path d="M1219.45 1773h27.6" stroke="#3a414a" fill="none"/><path d="M1219.46 1773.47h-.64l.25-.94h.4z" stroke="#3a414a" stroke-width=".05" fill="#3a414a"/><path d="M1261.8 1773l-14.26 4.63v-9.27z" stroke="#3a414a" fill="#3a414a"/><path d="M1475.3 1408.8a7.8 7.8 0 0 1 7.54-5.8h190.5a4.6 4.6 0 0 1 4.45 5.8l-23.76 89.07a7.8 7.8 0 0 1-7.55 5.8H1456a4.6 4.6 0 0 1-4.45-5.8z" stroke="#3a414a" stroke-width="2" fill="#fcfcca"/><use xlink:href="#C" transform="matrix(1,0,0,1,1454.9999999999998,1407.9999999999998) translate(14.52351851851851 49.770833333333336)"/><use xlink:href="#D" transform="matrix(1,0,0,1,1454.9999999999998,1407.9999999999998) translate(175.85685185185184 49.770833333333336)"/><path d="M1475.3 1533.46a7.8 7.8 0 0 1 7.54-5.8h190.5a4.6 4.6 0 0 1 4.45 5.8l-23.76 89.08a7.8 7.8 0 0 1-7.55 5.8H1456a4.6 4.6 0 0 1-4.45-5.8z" stroke="#3a414a" stroke-width="2" fill="#fcfcca"/><use xlink:href="#C" transform="matrix(1,0,0,1,1454.9999999999998,1532.6666666666665) translate(14.52351851851851 49.770833333333336)"/><use xlink:href="#E" transform="matrix(1,0,0,1,1454.9999999999998,1532.6666666666665) translate(175.85685185185184 49.770833333333336)"/><path d="M1475.3 1666.13a7.8 7.8 0 0 1 7.54-5.8h190.5a4.6 4.6 0 0 1 4.45 5.8l-23.76 89.07a7.8 7.8 0 0 1-7.55 5.8H1456a4.6 4.6 0 0 1-4.45-5.8z" stroke="#3a414a" stroke-width="2" fill="#d7faf5"/><g><use xlink:href="#C" transform="matrix(1,0,0,1,1454.9999999999998,1665.3333333333333) translate(14.52351851851851 49.770833333333336)"/><use xlink:href="#F" transform="matrix(1,0,0,1,1454.9999999999998,1665.3333333333333) translate(175.85685185185184 49.770833333333336)"/></g><path d="M1475.3 1855.8a7.8 7.8 0 0 1 7.54-5.8h190.5a4.6 4.6 0 0 1 4.45 5.8l-23.76 89.07a7.8 7.8 0 0 1-7.55 5.8H1456a4.6 4.6 0 0 1-4.45-5.8z" stroke="#3a414a" stroke-width="2" fill="#d7faf5"/><g><use xlink:href="#C" transform="matrix(1,0,0,1,1454.9999999999998,1854.9999999999998) translate(21.930925925925926 49.770833333333336)"/><use xlink:href="#G" transform="matrix(1,0,0,1,1454.9999999999998,1854.9999999999998) translate(183.26425925925926 49.770833333333336)"/></g><path d="M1419.84 1579h15.02a6 6 0 0 0 6-6v-114.53a5.14 5.14 0 0 1 5.14-5.14" stroke="#3a414a" fill="none"/><path d="M1419.85 1579.47h-.56l.04-.47-.05-.47h.55z" stroke="#3a414a" stroke-width=".05" fill="#3a414a"/><path d="M1460.77 1453.33l-14.27 4.64v-9.27z" stroke="#3a414a" fill="#3a414a"/><path d="M1419.84 1579l26.17-.62" stroke="#3a414a" fill="none"/><path d="M1419.86 1579.46l-.57.02.04-.48-.05-.47.54-.02z" stroke="#3a414a" stroke-width=".05" fill="#3a414a"/><path d="M1460.77 1578.04l-14.15 4.96-.22-9.27z" stroke="#3a414a" fill="#3a414a"/><path d="M1419.84 1774h15.02a6 6 0 0 0 6-6v-52.2a5.14 5.14 0 0 1 5.14-5.13" stroke="#3a414a" fill="none"/><path d="M1419.85 1774.47h-.56l.04-.47-.05-.47h.55z" stroke="#3a414a" stroke-width=".05" fill="#3a414a"/><path d="M1460.77 1710.67l-14.27 4.63v-9.27z" stroke="#3a414a" fill="#3a414a"/><path d="M1419.84 1774h15.02a6 6 0 0 1 6 6v115.2a5.14 5.14 0 0 0 5.14 5.13" stroke="#3a414a" fill="none"/><path d="M1419.85 1774.47h-.56l.04-.47-.05-.47h.55z" stroke="#3a414a" stroke-width=".05" fill="#3a414a"/><path d="M1460.77 1900.33l-14.27 4.64v-9.27z" stroke="#3a414a" fill="#3a414a"/><path d="M1576 1780.2c0 3.98-3.4 7.2-7.6 7.2-4.2 0-7.6-3.22-7.6-7.2s3.4-7.2 7.6-7.2c4.2 0 7.6 3.22 7.6 7.2zM1576.2 1804.6c0 3.98-3.4 7.2-7.6 7.2-4.2 0-7.6-3.22-7.6-7.2s3.4-7.2 7.6-7.2c4.2 0 7.6 3.22 7.6 7.2zM1576 1829c0 3.98-3.4 7.2-7.6 7.2-4.2 0-7.6-3.22-7.6-7.2s3.4-7.2 7.6-7.2c4.2 0 7.6 3.22 7.6 7.2z" stroke="#282c33" stroke-width="2" fill="#d7faf5"/><defs><path fill="#3a414a" d="M240 0l2-218c-23 76-54 145-80 218h-23L58-218 59 0H30v-248h44l77 211c21-75 51-140 76-211h43V0h-30" id="H"/><path fill="#3a414a" d="M100-194c63 0 86 42 84 106H49c0 40 14 67 53 68 26 1 43-12 49-29l28 8c-11 28-37 45-77 45C44 4 14-33 15-96c1-61 26-98 85-98zm52 81c6-60-76-77-97-28-3 7-6 17-6 28h103" id="I"/><path fill="#3a414a" d="M59-47c-2 24 18 29 38 22v24C64 9 27 4 27-40v-127H5v-23h24l9-43h21v43h35v23H59v120" id="J"/><path fill="#3a414a" d="M141-36C126-15 110 5 73 4 37 3 15-17 15-53c-1-64 63-63 125-63 3-35-9-54-41-54-24 1-41 7-42 31l-33-3c5-37 33-52 76-52 45 0 72 20 72 64v82c-1 20 7 32 28 27v20c-31 9-61-2-59-35zM48-53c0 20 12 33 32 33 41-3 63-29 60-74-43 2-92-5-92 41" id="K"/><path fill="#3a414a" d="M85-194c31 0 48 13 60 33l-1-100h32l1 261h-30c-2-10 0-23-3-31C134-8 116 4 85 4 32 4 16-35 15-94c0-66 23-100 70-100zm9 24c-40 0-46 34-46 75 0 40 6 74 45 74 42 0 51-32 51-76 0-42-9-74-50-73" id="L"/><g id="a"><use transform="matrix(0.07407407407407408,0,0,0.07407407407407408,0,0)" xlink:href="#H"/><use transform="matrix(0.07407407407407408,0,0,0.07407407407407408,22.148148148148152,0)" xlink:href="#I"/><use transform="matrix(0.07407407407407408,0,0,0.07407407407407408,36.96296296296297,0)" xlink:href="#J"/><use transform="matrix(0.07407407407407408,0,0,0.07407407407407408,44.37037037037039,0)" xlink:href="#K"/><use transform="matrix(0.07407407407407408,0,0,0.07407407407407408,59.185185185185205,0)" xlink:href="#L"/><use transform="matrix(0.07407407407407408,0,0,0.07407407407407408,74.00000000000001,0)" xlink:href="#K"/><use transform="matrix(0.07407407407407408,0,0,0.07407407407407408,88.81481481481484,0)" xlink:href="#J"/><use transform="matrix(0.07407407407407408,0,0,0.07407407407407408,96.22222222222223,0)" xlink:href="#K"/></g><path fill="#3a414a" d="M30-248c87 1 191-15 191 75 0 78-77 80-158 76V0H30v-248zm33 125c57 0 124 11 124-50 0-59-68-47-124-48v98" id="M"/><path fill="#3a414a" d="M30-248c118-7 216 8 213 122C240-48 200 0 122 0H30v-248zM63-27c89 8 146-16 146-99s-60-101-146-95v194" id="N"/><path fill="#3a414a" d="M63-220v92h138v28H63V0H30v-248h175v28H63" id="O"/><g id="b"><use transform="matrix(0.07407407407407408,0,0,0.07407407407407408,0,0)" xlink:href="#M"/><use transform="matrix(0.07407407407407408,0,0,0.07407407407407408,17.77777777777778,0)" xlink:href="#N"/><use transform="matrix(0.07407407407407408,0,0,0.07407407407407408,36.96296296296296,0)" xlink:href="#O"/></g><path fill="#3a414a" d="M33 0v-248h34V0H33" id="P"/><path fill="#3a414a" d="M117-194c89-4 53 116 60 194h-32v-121c0-31-8-49-39-48C34-167 62-67 57 0H25l-1-190h30c1 10-1 24 2 32 11-22 29-35 61-36" id="Q"/><path fill="#3a414a" d="M24-231v-30h32v30H24zM24 0v-190h32V0H24" id="R"/><path fill="#3a414a" d="M24 0v-261h32V0H24" id="S"/><g id="c"><use transform="matrix(0.07407407407407408,0,0,0.07407407407407408,0,0)" xlink:href="#P"/><use transform="matrix(0.07407407407407408,0,0,0.07407407407407408,7.407407407407408,0)" xlink:href="#Q"/><use transform="matrix(0.07407407407407408,0,0,0.07407407407407408,22.222222222222225,0)" xlink:href="#R"/><use transform="matrix(0.07407407407407408,0,0,0.07407407407407408,28.074074074074076,0)" xlink:href="#J"/><use transform="matrix(0.07407407407407408,0,0,0.07407407407407408,35.48148148148148,0)" xlink:href="#R"/><use transform="matrix(0.07407407407407408,0,0,0.07407407407407408,41.333333333333336,0)" xlink:href="#K"/><use transform="matrix(0.07407407407407408,0,0,0.07407407407407408,56.14814814814815,0)" xlink:href="#S"/></g><path fill="#3a414a" d="M135-143c-3-34-86-38-87 0 15 53 115 12 119 90S17 21 10-45l28-5c4 36 97 45 98 0-10-56-113-15-118-90-4-57 82-63 122-42 12 7 21 19 24 35" id="T"/><path fill="#3a414a" d="M33-154v-36h34v36H33zM33 0v-36h34V0H33" id="U"/><g id="d"><use transform="matrix(0.07407407407407408,0,0,0.07407407407407408,0,0)" xlink:href="#N"/><use transform="matrix(0.07407407407407408,0,0,0.07407407407407408,19.185185185185187,0)" xlink:href="#K"/><use transform="matrix(0.07407407407407408,0,0,0.07407407407407408,34,0)" xlink:href="#J"/><use transform="matrix(0.07407407407407408,0,0,0.07407407407407408,41.407407407407405,0)" xlink:href="#K"/><use transform="matrix(0.07407407407407408,0,0,0.07407407407407408,56.22222222222222,0)" xlink:href="#T"/><use transform="matrix(0.07407407407407408,0,0,0.07407407407407408,69.55555555555556,0)" xlink:href="#I"/><use transform="matrix(0.07407407407407408,0,0,0.07407407407407408,84.37037037037038,0)" xlink:href="#J"/><use transform="matrix(0.07407407407407408,0,0,0.07407407407407408,91.77777777777779,0)" xlink:href="#U"/></g><path fill="#3a414a" d="M54-142c48-35 137-8 131 61C196 18 31 33 14-55l32-4c7 23 22 37 52 37 35-1 51-22 54-58 4-55-73-65-99-34H22l8-134h141v27H59" id="V"/><path fill="#3a414a" d="M64 0c3-98 48-159 88-221H18v-27h164v26C143-157 98-101 97 0H64" id="W"/><path fill="#3a414a" d="M155-56V0h-30v-56H8v-25l114-167h33v167h35v25h-35zm-30-156c-27 46-58 90-88 131h88v-131" id="X"/><g id="e"><use transform="matrix(0.07407407407407408,0,0,0.07407407407407408,0,0)" xlink:href="#V"/><use transform="matrix(0.07407407407407408,0,0,0.07407407407407408,14.814814814814817,0)" xlink:href="#W"/><use transform="matrix(0.07407407407407408,0,0,0.07407407407407408,29.629629629629633,0)" xlink:href="#X"/><use transform="matrix(0.07407407407407408,0,0,0.07407407407407408,44.44444444444445,0)" xlink:href="#X"/></g><path fill="#3a414a" d="M115-194c55 1 70 41 70 98S169 2 115 4C84 4 66-9 55-30l1 105H24l-1-265h31l2 30c10-21 28-34 59-34zm-8 174c40 0 45-34 45-75s-6-73-45-74c-42 0-51 32-51 76 0 43 10 73 51 73" id="Y"/><path fill="#3a414a" d="M114-163C36-179 61-72 57 0H25l-1-190h30c1 12-1 29 2 39 6-27 23-49 58-41v29" id="Z"/><g id="f"><use transform="matrix(0.07407407407407408,0,0,0.07407407407407408,0,0)" xlink:href="#M"/><use transform="matrix(0.07407407407407408,0,0,0.07407407407407408,17.77777777777778,0)" xlink:href="#K"/><use transform="matrix(0.07407407407407408,0,0,0.07407407407407408,32.592592592592595,0)" xlink:href="#Y"/><use transform="matrix(0.07407407407407408,0,0,0.07407407407407408,47.40740740740741,0)" xlink:href="#I"/><use transform="matrix(0.07407407407407408,0,0,0.07407407407407408,62.22222222222223,0)" xlink:href="#Z"/><use transform="matrix(0.07407407407407408,0,0,0.07407407407407408,71.03703703703704,0)" xlink:href="#T"/></g><path fill="#3a414a" d="M266 0h-40l-56-210L115 0H75L2-248h35L96-30l15-64 43-154h32l59 218 59-218h35" id="aa"/><path fill="#3a414a" d="M106-169C34-169 62-67 57 0H25v-261h32l-1 103c12-21 28-36 61-36 89 0 53 116 60 194h-32v-121c2-32-8-49-39-48" id="ab"/><g id="g"><use transform="matrix(0.06790123456790124,0,0,0.06790123456790124,0,0)" xlink:href="#aa"/><use transform="matrix(0.06790123456790124,0,0,0.06790123456790124,22.543209876543212,0)" xlink:href="#I"/><use transform="matrix(0.06790123456790124,0,0,0.06790123456790124,36.12345679012346,0)" xlink:href="#K"/><use transform="matrix(0.06790123456790124,0,0,0.06790123456790124,49.70370370370371,0)" xlink:href="#J"/><use transform="matrix(0.06790123456790124,0,0,0.06790123456790124,56.49382716049384,0)" xlink:href="#ab"/><use transform="matrix(0.06790123456790124,0,0,0.06790123456790124,70.07407407407409,0)" xlink:href="#I"/><use transform="matrix(0.06790123456790124,0,0,0.06790123456790124,83.65432098765434,0)" xlink:href="#Z"/></g><path fill="#3a414a" d="M103-251c84 0 111 97 45 133-19 10-37 24-39 52H78c0-63 77-55 77-114 0-30-21-42-52-43-32 0-53 17-56 46l-32-2c7-45 34-72 88-72zM77 0v-35h34V0H77" id="ac"/><g id="h"><use transform="matrix(0.06790123456790124,0,0,0.06790123456790124,0,0)" xlink:href="#N"/><use transform="matrix(0.06790123456790124,0,0,0.06790123456790124,17.58641975308642,0)" xlink:href="#K"/><use transform="matrix(0.06790123456790124,0,0,0.06790123456790124,31.16666666666667,0)" xlink:href="#J"/><use transform="matrix(0.06790123456790124,0,0,0.06790123456790124,37.9567901234568,0)" xlink:href="#K"/><use transform="matrix(0.06790123456790124,0,0,0.06790123456790124,51.537037037037045,0)" xlink:href="#ac"/></g><g id="i"><use transform="matrix(0.07407407407407408,0,0,0.07407407407407408,0,0)" xlink:href="#O"/><use transform="matrix(0.07407407407407408,0,0,0.07407407407407408,16.222222222222225,0)" xlink:href="#R"/><use transform="matrix(0.07407407407407408,0,0,0.07407407407407408,22.074074074074076,0)" xlink:href="#S"/><use transform="matrix(0.07407407407407408,0,0,0.07407407407407408,27.92592592592593,0)" xlink:href="#J"/><use transform="matrix(0.07407407407407408,0,0,0.07407407407407408,35.33333333333334,0)" xlink:href="#I"/><use transform="matrix(0.07407407407407408,0,0,0.07407407407407408,50.14814814814817,0)" xlink:href="#Z"/><use transform="matrix(0.07407407407407408,0,0,0.07407407407407408,58.962962962962976,0)" xlink:href="#I"/><use transform="matrix(0.07407407407407408,0,0,0.07407407407407408,73.7777777777778,0)" xlink:href="#L"/></g><path fill="#3a414a" d="M185-189c-5-48-123-54-124 2 14 75 158 14 163 119 3 78-121 87-175 55-17-10-28-26-33-46l33-7c5 56 141 63 141-1 0-78-155-14-162-118-5-82 145-84 179-34 5 7 8 16 11 25" id="ad"/><path fill="#3a414a" d="M84 4C-5 8 30-112 23-190h32v120c0 31 7 50 39 49 72-2 45-101 50-169h31l1 190h-30c-1-10 1-25-2-33-11 22-28 36-60 37" id="ae"/><path fill="#3a414a" d="M115-194c53 0 69 39 70 98 0 66-23 100-70 100C84 3 66-7 56-30L54 0H23l1-261h32v101c10-23 28-34 59-34zm-8 174c40 0 45-34 45-75 0-40-5-75-45-74-42 0-51 32-51 76 0 43 10 73 51 73" id="af"/><g id="j"><use transform="matrix(0.07407407407407408,0,0,0.07407407407407408,0,0)" xlink:href="#ad"/><use transform="matrix(0.07407407407407408,0,0,0.07407407407407408,17.77777777777778,0)" xlink:href="#ae"/><use transform="matrix(0.07407407407407408,0,0,0.07407407407407408,32.592592592592595,0)" xlink:href="#af"/><use transform="matrix(0.07407407407407408,0,0,0.07407407407407408,47.40740740740741,0)" xlink:href="#T"/><use transform="matrix(0.07407407407407408,0,0,0.07407407407407408,60.74074074074075,0)" xlink:href="#I"/><use transform="matrix(0.07407407407407408,0,0,0.07407407407407408,75.55555555555557,0)" xlink:href="#J"/><use transform="matrix(0.07407407407407408,0,0,0.07407407407407408,82.96296296296298,0)" xlink:href="#U"/></g><path fill="#3a414a" d="M27 0v-27h64v-190l-56 39v-29l58-41h29v221h61V0H27" id="ag"/><path fill="#3a414a" d="M110-160c48 1 74 30 74 79 0 53-28 85-80 85-65 0-83-55-86-122-5-90 50-162 133-122 14 7 22 21 27 39l-31 6c-5-40-67-38-82-6-9 19-15 44-15 74 11-20 30-34 60-33zm-7 138c34 0 49-23 49-58s-16-56-50-56c-29 0-50 16-49 49 1 36 15 65 50 65" id="ah"/><g id="k"><use transform="matrix(0.07407407407407408,0,0,0.07407407407407408,0,0)" xlink:href="#X"/><use transform="matrix(0.07407407407407408,0,0,0.07407407407407408,14.814814814814817,0)" xlink:href="#ag"/><use transform="matrix(0.07407407407407408,0,0,0.07407407407407408,29.629629629629633,0)" xlink:href="#ah"/></g><path fill="#333" d="M146-102V0H94v-102L6-248h54l60 105 60-105h54" id="ai"/><path fill="#333" d="M185-48c-13 30-37 53-82 52C43 2 14-33 14-96s30-98 90-98c62 0 83 45 84 108H66c0 31 8 55 39 56 18 0 30-7 34-22zm-45-69c5-46-57-63-70-21-2 6-4 13-4 21h74" id="aj"/><path fill="#333" d="M137-138c1-29-70-34-71-4 15 46 118 7 119 86 1 83-164 76-172 9l43-7c4 19 20 25 44 25 33 8 57-30 24-41C81-84 22-81 20-136c-2-80 154-74 161-7" id="ak"/><g id="l"><use transform="matrix(0.07407407407407408,0,0,0.07407407407407408,0,0)" xlink:href="#ai"/><use transform="matrix(0.07407407407407408,0,0,0.07407407407407408,16.296296296296298,0)" xlink:href="#aj"/><use transform="matrix(0.07407407407407408,0,0,0.07407407407407408,31.111111111111114,0)" xlink:href="#ak"/></g><path fill="#3a414a" d="M100-194c62-1 85 37 85 99 1 63-27 99-86 99S16-35 15-95c0-66 28-99 85-99zM99-20c44 1 53-31 53-75 0-43-8-75-51-75s-53 32-53 75 10 74 51 75" id="al"/><path fill="#3a414a" d="M206 0h-36l-40-164L89 0H53L-1-190h32L70-26l43-164h34l41 164 42-164h31" id="am"/><g id="m"><use transform="matrix(0.07407407407407408,0,0,0.07407407407407408,0,0)" xlink:href="#N"/><use transform="matrix(0.07407407407407408,0,0,0.07407407407407408,19.185185185185187,0)" xlink:href="#al"/><use transform="matrix(0.07407407407407408,0,0,0.07407407407407408,34,0)" xlink:href="#am"/><use transform="matrix(0.07407407407407408,0,0,0.07407407407407408,53.18518518518519,0)" xlink:href="#Q"/><use transform="matrix(0.07407407407407408,0,0,0.07407407407407408,68,0)" xlink:href="#S"/><use transform="matrix(0.07407407407407408,0,0,0.07407407407407408,73.85185185185185,0)" xlink:href="#al"/><use transform="matrix(0.07407407407407408,0,0,0.07407407407407408,88.66666666666666,0)" xlink:href="#K"/><use transform="matrix(0.07407407407407408,0,0,0.07407407407407408,103.48148148148147,0)" xlink:href="#L"/></g><g id="n"><use transform="matrix(0.07407407407407408,0,0,0.07407407407407408,0,0)" xlink:href="#M"/><use transform="matrix(0.07407407407407408,0,0,0.07407407407407408,17.77777777777778,0)" xlink:href="#N"/><use transform="matrix(0.07407407407407408,0,0,0.07407407407407408,36.96296296296296,0)" xlink:href="#O"/></g><g id="p"><use transform="matrix(0.07407407407407408,0,0,0.07407407407407408,0,0)" xlink:href="#M"/><use transform="matrix(0.07407407407407408,0,0,0.07407407407407408,17.77777777777778,0)" xlink:href="#N"/><use transform="matrix(0.07407407407407408,0,0,0.07407407407407408,36.96296296296296,0)" xlink:href="#O"/></g><path fill="#3a414a" d="M101-234c-31-9-42 10-38 44h38v23H63V0H32v-167H5v-23h27c-7-52 17-82 69-68v24" id="an"/><path fill="#3a414a" d="M179-190L93 31C79 59 56 82 12 73V49c39 6 53-20 64-50L1-190h34L92-34l54-156h33" id="ao"/><g id="q"><use transform="matrix(0.07407407407407408,0,0,0.07407407407407408,0,0)" xlink:href="#P"/><use transform="matrix(0.07407407407407408,0,0,0.07407407407407408,7.407407407407408,0)" xlink:href="#L"/><use transform="matrix(0.07407407407407408,0,0,0.07407407407407408,22.222222222222225,0)" xlink:href="#I"/><use transform="matrix(0.07407407407407408,0,0,0.07407407407407408,37.03703703703704,0)" xlink:href="#Q"/><use transform="matrix(0.07407407407407408,0,0,0.07407407407407408,51.85185185185186,0)" xlink:href="#J"/><use transform="matrix(0.07407407407407408,0,0,0.07407407407407408,59.25925925925927,0)" xlink:href="#R"/><use transform="matrix(0.07407407407407408,0,0,0.07407407407407408,65.11111111111111,0)" xlink:href="#an"/><use transform="matrix(0.07407407407407408,0,0,0.07407407407407408,72.51851851851852,0)" xlink:href="#ao"/></g><path fill="#3a414a" d="M30 0v-248h187v28H63v79h144v27H63v87h162V0H30" id="ap"/><path fill="#3a414a" d="M145-31C134-9 116 4 85 4 32 4 16-35 15-94c0-59 17-99 70-100 32-1 48 14 60 33 0-11-1-24 2-32h30l-1 268h-32zM93-21c41 0 51-33 51-76s-8-73-50-73c-40 0-46 35-46 75s5 74 45 74" id="aq"/><g id="r"><use transform="matrix(0.07407407407407408,0,0,0.07407407407407408,0,0)" xlink:href="#ap"/><use transform="matrix(0.07407407407407408,0,0,0.07407407407407408,17.77777777777778,0)" xlink:href="#aq"/><use transform="matrix(0.07407407407407408,0,0,0.07407407407407408,32.592592592592595,0)" xlink:href="#ae"/><use transform="matrix(0.07407407407407408,0,0,0.07407407407407408,47.40740740740741,0)" xlink:href="#K"/><use transform="matrix(0.07407407407407408,0,0,0.07407407407407408,62.22222222222223,0)" xlink:href="#J"/><use transform="matrix(0.07407407407407408,0,0,0.07407407407407408,69.62962962962963,0)" xlink:href="#R"/><use transform="matrix(0.07407407407407408,0,0,0.07407407407407408,75.48148148148148,0)" xlink:href="#al"/><use transform="matrix(0.07407407407407408,0,0,0.07407407407407408,90.2962962962963,0)" xlink:href="#Q"/><use transform="matrix(0.07407407407407408,0,0,0.07407407407407408,105.11111111111111,0)" xlink:href="#T"/></g><g id="s"><use transform="matrix(0.06790123456790124,0,0,0.06790123456790124,0,0)" xlink:href="#ap"/><use transform="matrix(0.06790123456790124,0,0,0.06790123456790124,16.296296296296298,0)" xlink:href="#aq"/><use transform="matrix(0.06790123456790124,0,0,0.06790123456790124,29.876543209876544,0)" xlink:href="#ae"/><use transform="matrix(0.06790123456790124,0,0,0.06790123456790124,43.45679012345679,0)" xlink:href="#K"/><use transform="matrix(0.06790123456790124,0,0,0.06790123456790124,57.03703703703704,0)" xlink:href="#J"/><use transform="matrix(0.06790123456790124,0,0,0.06790123456790124,63.827160493827165,0)" xlink:href="#R"/><use transform="matrix(0.06790123456790124,0,0,0.06790123456790124,69.19135802469137,0)" xlink:href="#al"/><use transform="matrix(0.06790123456790124,0,0,0.06790123456790124,82.77160493827162,0)" xlink:href="#Q"/></g><path fill="#3a414a" d="M127-220V0H93v-220H8v-28h204v28h-85" id="ar"/><g id="t"><use transform="matrix(0.06790123456790124,0,0,0.06790123456790124,0,0)" xlink:href="#ar"/><use transform="matrix(0.06790123456790124,0,0,0.06790123456790124,13.512345679012347,0)" xlink:href="#ao"/><use transform="matrix(0.06790123456790124,0,0,0.06790123456790124,25.734567901234573,0)" xlink:href="#Y"/><use transform="matrix(0.06790123456790124,0,0,0.06790123456790124,39.31481481481481,0)" xlink:href="#I"/><use transform="matrix(0.06790123456790124,0,0,0.06790123456790124,52.89506172839506,0)" xlink:href="#ac"/></g><path fill="#3a414a" d="M210-169c-67 3-38 105-44 169h-31v-121c0-29-5-50-35-48C34-165 62-65 56 0H25l-1-190h30c1 10-1 24 2 32 10-44 99-50 107 0 11-21 27-35 58-36 85-2 47 119 55 194h-31v-121c0-29-5-49-35-48" id="as"/><g id="u"><use transform="matrix(0.07407407407407408,0,0,0.07407407407407408,0,0)" xlink:href="#M"/><use transform="matrix(0.07407407407407408,0,0,0.07407407407407408,17.77777777777778,0)" xlink:href="#Z"/><use transform="matrix(0.07407407407407408,0,0,0.07407407407407408,26.592592592592595,0)" xlink:href="#al"/><use transform="matrix(0.07407407407407408,0,0,0.07407407407407408,41.40740740740741,0)" xlink:href="#af"/><use transform="matrix(0.07407407407407408,0,0,0.07407407407407408,56.22222222222223,0)" xlink:href="#S"/><use transform="matrix(0.07407407407407408,0,0,0.07407407407407408,62.07407407407408,0)" xlink:href="#I"/><use transform="matrix(0.07407407407407408,0,0,0.07407407407407408,76.8888888888889,0)" xlink:href="#as"/></g><g id="v"><use transform="matrix(0.07407407407407408,0,0,0.07407407407407408,0,0)" xlink:href="#ap"/><use transform="matrix(0.07407407407407408,0,0,0.07407407407407408,17.77777777777778,0)" xlink:href="#aq"/><use transform="matrix(0.07407407407407408,0,0,0.07407407407407408,32.592592592592595,0)" xlink:href="#ae"/><use transform="matrix(0.07407407407407408,0,0,0.07407407407407408,47.40740740740741,0)" xlink:href="#K"/><use transform="matrix(0.07407407407407408,0,0,0.07407407407407408,62.22222222222223,0)" xlink:href="#J"/><use transform="matrix(0.07407407407407408,0,0,0.07407407407407408,69.62962962962963,0)" xlink:href="#R"/><use transform="matrix(0.07407407407407408,0,0,0.07407407407407408,75.48148148148148,0)" xlink:href="#al"/><use transform="matrix(0.07407407407407408,0,0,0.07407407407407408,90.2962962962963,0)" xlink:href="#Q"/></g><path fill="#3a414a" d="M30 0v-248h33v221h125V0H30" id="at"/><g id="w"><use transform="matrix(0.07407407407407408,0,0,0.07407407407407408,0,0)" xlink:href="#at"/><use transform="matrix(0.07407407407407408,0,0,0.07407407407407408,14.814814814814817,0)" xlink:href="#R"/><use transform="matrix(0.07407407407407408,0,0,0.07407407407407408,20.666666666666668,0)" xlink:href="#T"/><use transform="matrix(0.07407407407407408,0,0,0.07407407407407408,34.00000000000001,0)" xlink:href="#J"/></g><g id="x"><use transform="matrix(0.07407407407407408,0,0,0.07407407407407408,0,0)" xlink:href="#ad"/><use transform="matrix(0.07407407407407408,0,0,0.07407407407407408,17.77777777777778,0)" xlink:href="#al"/><use transform="matrix(0.07407407407407408,0,0,0.07407407407407408,32.592592592592595,0)" xlink:href="#S"/><use transform="matrix(0.07407407407407408,0,0,0.07407407407407408,38.44444444444445,0)" xlink:href="#ae"/><use transform="matrix(0.07407407407407408,0,0,0.07407407407407408,53.25925925925927,0)" xlink:href="#J"/><use transform="matrix(0.07407407407407408,0,0,0.07407407407407408,60.66666666666667,0)" xlink:href="#R"/><use transform="matrix(0.07407407407407408,0,0,0.07407407407407408,66.51851851851852,0)" xlink:href="#al"/><use transform="matrix(0.07407407407407408,0,0,0.07407407407407408,81.33333333333334,0)" xlink:href="#Q"/></g><path fill="#333" d="M24-248c120-7 223 5 221 122C244-46 201 0 124 0H24v-248zM76-40c74 7 117-18 117-86 0-67-45-88-117-82v168" id="au"/><path fill="#333" d="M121-226c-27-7-43 5-38 36h38v33H83V0H34v-157H6v-33h28c-9-59 32-81 87-68v32" id="av"/><path fill="#333" d="M25-224v-37h50v37H25zM25 0v-190h50V0H25" id="aw"/><path fill="#333" d="M135-194c87-1 58 113 63 194h-50c-7-57 23-157-34-157-59 0-34 97-39 157H25l-1-190h47c2 12-1 28 3 38 12-26 28-41 61-42" id="ax"/><path fill="#333" d="M110-251c83-7 118 89 53 130-17 10-36 21-38 46H78c2-56 65-53 71-103 2-21-15-35-38-34-25 1-41 14-44 38l-50-2c6-48 39-70 93-75zM77 0v-47h51V0H77" id="ay"/><g id="y"><use transform="matrix(0.07407407407407408,0,0,0.07407407407407408,0,0)" xlink:href="#au"/><use transform="matrix(0.07407407407407408,0,0,0.07407407407407408,19.185185185185187,0)" xlink:href="#aj"/><use transform="matrix(0.07407407407407408,0,0,0.07407407407407408,34,0)" xlink:href="#av"/><use transform="matrix(0.07407407407407408,0,0,0.07407407407407408,42.814814814814824,0)" xlink:href="#aw"/><use transform="matrix(0.07407407407407408,0,0,0.07407407407407408,50.22222222222223,0)" xlink:href="#ax"/><use transform="matrix(0.07407407407407408,0,0,0.07407407407407408,66.44444444444446,0)" xlink:href="#aj"/><use transform="matrix(0.07407407407407408,0,0,0.07407407407407408,81.25925925925927,0)" xlink:href="#ay"/></g><path fill="#333" d="M169-182c-1-43-94-46-97-3 18 66 151 10 154 114 3 95-165 93-204 36-6-8-10-19-12-30l50-8c3 46 112 56 116 5-17-69-150-10-154-114-4-87 153-88 188-35 5 8 8 18 10 28" id="az"/><path fill="#333" d="M110-194c64 0 96 36 96 99 0 64-35 99-97 99-61 0-95-36-95-99 0-62 34-99 96-99zm-1 164c35 0 45-28 45-65 0-40-10-65-43-65-34 0-45 26-45 65 0 36 10 65 43 65" id="aA"/><path fill="#333" d="M25 0v-261h50V0H25" id="aB"/><path fill="#333" d="M128 0H69L1-190h53L99-40l48-150h52" id="aC"/><g id="z"><use transform="matrix(0.07407407407407408,0,0,0.07407407407407408,0,0)" xlink:href="#az"/><use transform="matrix(0.07407407407407408,0,0,0.07407407407407408,17.77777777777778,0)" xlink:href="#aA"/><use transform="matrix(0.07407407407407408,0,0,0.07407407407407408,34,0)" xlink:href="#aB"/><use transform="matrix(0.07407407407407408,0,0,0.07407407407407408,41.407407407407405,0)" xlink:href="#aC"/><use transform="matrix(0.07407407407407408,0,0,0.07407407407407408,56.22222222222222,0)" xlink:href="#aj"/><use transform="matrix(0.07407407407407408,0,0,0.07407407407407408,71.03703703703704,0)" xlink:href="#ay"/></g><path fill="#3a414a" d="M16-82v-28h88v28H16" id="aD"/><g id="A"><use transform="matrix(0.06790123456790124,0,0,0.06790123456790124,0,0)" xlink:href="#ad"/><use transform="matrix(0.06790123456790124,0,0,0.06790123456790124,16.296296296296298,0)" xlink:href="#ae"/><use transform="matrix(0.06790123456790124,0,0,0.06790123456790124,29.876543209876544,0)" xlink:href="#af"/><use transform="matrix(0.06790123456790124,0,0,0.06790123456790124,43.45679012345679,0)" xlink:href="#aD"/></g><path fill="#3a414a" d="M96-169c-40 0-48 33-48 73s9 75 48 75c24 0 41-14 43-38l32 2c-6 37-31 61-74 61-59 0-76-41-82-99-10-93 101-131 147-64 4 7 5 14 7 22l-32 3c-4-21-16-35-41-35" id="aE"/><path fill="#3a414a" d="M177-190C167-65 218 103 67 71c-23-6-38-20-44-43l32-5c15 47 100 32 89-28v-30C133-14 115 1 83 1 29 1 15-40 15-95c0-56 16-97 71-98 29-1 48 16 59 35 1-10 0-23 2-32h30zM94-22c36 0 50-32 50-73 0-42-14-75-50-75-39 0-46 34-46 75s6 73 46 73" id="aF"/><g id="B"><use transform="matrix(0.06790123456790124,0,0,0.06790123456790124,0,0)" xlink:href="#aE"/><use transform="matrix(0.06790123456790124,0,0,0.06790123456790124,12.222222222222223,0)" xlink:href="#K"/><use transform="matrix(0.06790123456790124,0,0,0.06790123456790124,25.802469135802472,0)" xlink:href="#J"/><use transform="matrix(0.06790123456790124,0,0,0.06790123456790124,32.592592592592595,0)" xlink:href="#I"/><use transform="matrix(0.06790123456790124,0,0,0.06790123456790124,46.17283950617284,0)" xlink:href="#aF"/><use transform="matrix(0.06790123456790124,0,0,0.06790123456790124,59.75308641975309,0)" xlink:href="#al"/><use transform="matrix(0.06790123456790124,0,0,0.06790123456790124,73.33333333333334,0)" xlink:href="#Z"/><use transform="matrix(0.06790123456790124,0,0,0.06790123456790124,81.4135802469136,0)" xlink:href="#ao"/><use transform="matrix(0.06790123456790124,0,0,0.06790123456790124,93.63580246913583,0)" xlink:href="#ac"/></g><g id="C"><use transform="matrix(0.07407407407407408,0,0,0.07407407407407408,0,0)" xlink:href="#T"/><use transform="matrix(0.07407407407407408,0,0,0.07407407407407408,13.333333333333336,0)" xlink:href="#ae"/><use transform="matrix(0.07407407407407408,0,0,0.07407407407407408,28.148148148148152,0)" xlink:href="#af"/><use transform="matrix(0.07407407407407408,0,0,0.07407407407407408,42.96296296296297,0)" xlink:href="#aD"/><use transform="matrix(0.07407407407407408,0,0,0.07407407407407408,51.777777777777786,0)" xlink:href="#aE"/><use transform="matrix(0.07407407407407408,0,0,0.07407407407407408,65.11111111111111,0)" xlink:href="#K"/><use transform="matrix(0.07407407407407408,0,0,0.07407407407407408,79.92592592592592,0)" xlink:href="#J"/><use transform="matrix(0.07407407407407408,0,0,0.07407407407407408,87.33333333333333,0)" xlink:href="#I"/><use transform="matrix(0.07407407407407408,0,0,0.07407407407407408,102.14814814814814,0)" xlink:href="#aF"/><use transform="matrix(0.07407407407407408,0,0,0.07407407407407408,116.96296296296296,0)" xlink:href="#al"/><use transform="matrix(0.07407407407407408,0,0,0.07407407407407408,131.77777777777777,0)" xlink:href="#Z"/><use transform="matrix(0.07407407407407408,0,0,0.07407407407407408,140.59259259259258,0)" xlink:href="#ao"/></g><path fill="#3a414a" d="M101-251c68 0 85 55 85 127S166 4 100 4C33 4 14-52 14-124c0-73 17-127 87-127zm-1 229c47 0 54-49 54-102s-4-102-53-102c-51 0-55 48-55 102 0 53 5 102 54 102" id="aG"/><g id="D"><use transform="matrix(0.07407407407407408,0,0,0.07407407407407408,0,0)" xlink:href="#aG"/><use transform="matrix(0.07407407407407408,0,0,0.07407407407407408,14.814814814814817,0)" xlink:href="#ag"/></g><path fill="#3a414a" d="M101-251c82-7 93 87 43 132L82-64C71-53 59-42 53-27h129V0H18c2-99 128-94 128-182 0-28-16-43-45-43s-46 15-49 41l-32-3c6-41 34-60 81-64" id="aH"/><g id="E"><use transform="matrix(0.07407407407407408,0,0,0.07407407407407408,0,0)" xlink:href="#aG"/><use transform="matrix(0.07407407407407408,0,0,0.07407407407407408,14.814814814814817,0)" xlink:href="#aH"/></g><path fill="#3a414a" d="M126-127c33 6 58 20 58 59 0 88-139 92-164 29-3-8-5-16-6-25l32-3c6 27 21 44 54 44 32 0 52-15 52-46 0-38-36-46-79-43v-28c39 1 72-4 72-42 0-27-17-43-46-43-28 0-47 15-49 41l-32-3c6-42 35-63 81-64 48-1 79 21 79 65 0 36-21 52-52 59" id="aI"/><g id="F"><use transform="matrix(0.07407407407407408,0,0,0.07407407407407408,0,0)" xlink:href="#aG"/><use transform="matrix(0.07407407407407408,0,0,0.07407407407407408,14.814814814814817,0)" xlink:href="#aI"/></g><use transform="matrix(0.07407407407407408,0,0,0.07407407407407408,0,0)" xlink:href="#Q" id="G"/></defs></g></svg>