<svg xmlns="http://www.w3.org/2000/svg" xmlns:xlink="http://www.w3.org/1999/xlink" xmlns:lucid="lucid" width="1636.29" height="596.95"><g transform="translate(-220.77738665177299 -495.8170201196335)" lucid:page-tab-id="Q_FgOI60pKwN"><path d="M246.58 711.46a7.8 7.8 0 0 1 7.54-5.8h190.5a4.6 4.6 0 0 1 4.44 5.8l-23.75 89.08a7.8 7.8 0 0 1-7.53 5.8h-190.5a4.6 4.6 0 0 1-4.45-5.8z" stroke="#3a414a" stroke-width="2" fill="#fff3d9"/><use xlink:href="#a" transform="matrix(1,0,0,1,226.27738665177284,710.6666666666667) translate(57.986481481481505 35.55208333333333)"/><use xlink:href="#b" transform="matrix(1,0,0,1,226.27738665177284,710.6666666666667) translate(36.8938888888889 67.55208333333333)"/><use xlink:href="#c" transform="matrix(1,0,0,1,226.27738665177284,710.6666666666667) translate(88.74574074074076 67.55208333333333)"/><path d="M765.3 590.75a7.8 7.8 0 0 1 7.54-5.8h190.5a4.6 4.6 0 0 1 4.45 5.8l-23.76 89.07a7.8 7.8 0 0 1-7.55 5.8H746a4.6 4.6 0 0 1-4.45-5.8z" stroke="#3a414a" stroke-width="2" fill="#fff3d9"/><use xlink:href="#d" transform="matrix(1,0,0,1,744.9999999999999,589.9522586848714) translate(44.19018518518519 49.77083333333333)"/><use xlink:href="#e" transform="matrix(1,0,0,1,744.9999999999999,589.9522586848714) translate(134.41240740740741 49.77083333333333)"/><path d="M494 590.95a6 6 0 0 1 6-6h217.34a6 6 0 0 1 6 6v88.67a6 6 0 0 1-6 6H500a6 6 0 0 1-6-6z" stroke="#3a414a" fill="#fcfcca"/><use xlink:href="#f" transform="matrix(1,0,0,1,506.00234675603065,596.9522586855408) translate(22.197530864197546 29.80902777777778)"/><use xlink:href="#g" transform="matrix(1,0,0,1,506.00234675603065,596.9522586855408) translate(103.61728395061728 29.80902777777778)"/><use xlink:href="#h" transform="matrix(1,0,0,1,506.00234675603065,596.9522586855408) translate(17.72222222222223 56.47569444444445)"/><use xlink:href="#i" transform="matrix(1,0,0,1,506.00234675603065,596.9522586855408) translate(87.16666666666667 56.47569444444445)"/><path d="M724.34 635.3H736" stroke="#3a414a" fill="none"/><path d="M724.35 635.76h-.5v-.95h.5z" stroke="#3a414a" stroke-width=".05" fill="#3a414a"/><path d="M750.77 635.3l-14.27 4.62v-9.27z" stroke="#3a414a" fill="#3a414a"/><path d="M494 711.67a6 6 0 0 1 6-6h217.34a6 6 0 0 1 6 6v88.66a6 6 0 0 1-6 6H500a6 6 0 0 1-6-6z" stroke="#3a414a" fill="#fcfcca"/><use xlink:href="#f" transform="matrix(1,0,0,1,506.00234675603065,717.6666666666667) translate(11.734567901234584 41.84027777777778)"/><use xlink:href="#j" transform="matrix(1,0,0,1,506.00234675603065,717.6666666666667) translate(93.15432098765432 41.84027777777778)"/><use xlink:href="#k" transform="matrix(1,0,0,1,506.00234675603065,717.6666666666667) translate(146.179012345679 41.84027777777778)"/><path d="M494 832.38a6 6 0 0 1 6-6h217.34a6 6 0 0 1 6 6v88.67a6 6 0 0 1-6 6H500a6 6 0 0 1-6-6z" stroke="#3a414a" fill="#fcfcca"/><use xlink:href="#f" transform="matrix(1,0,0,1,506.00234675603065,838.3810746477927) translate(27.166666666666686 41.84027777777778)"/><use xlink:href="#l" transform="matrix(1,0,0,1,506.00234675603065,838.3810746477927) translate(108.58641975308642 41.84027777777778)"/><path d="M765.3 711.46a7.8 7.8 0 0 1 7.54-5.8h190.5a4.6 4.6 0 0 1 4.45 5.8l-23.76 89.08a7.8 7.8 0 0 1-7.55 5.8H746a4.6 4.6 0 0 1-4.45-5.8z" stroke="#3a414a" stroke-width="2" fill="#fff3d9"/><use xlink:href="#m" transform="matrix(1,0,0,1,744.9999999999999,710.6666666666667) translate(57.48648148148148 49.77083333333333)"/><use xlink:href="#e" transform="matrix(1,0,0,1,744.9999999999999,710.6666666666667) translate(121.11611111111111 49.77083333333333)"/><path d="M765.3 832.18a7.8 7.8 0 0 1 7.54-5.8h190.5a4.6 4.6 0 0 1 4.45 5.8l-23.76 89.07a7.8 7.8 0 0 1-7.55 5.8H746a4.6 4.6 0 0 1-4.45-5.8z" stroke="#3a414a" stroke-width="2" fill="#fff3d9"/><use xlink:href="#n" transform="matrix(1,0,0,1,744.9999999999999,831.381074648462) translate(43.44944444444446 49.77083333333333)"/><use xlink:href="#e" transform="matrix(1,0,0,1,744.9999999999999,831.381074648462) translate(135.15314814814815 49.77083333333333)"/><path d="M724.34 756H736" stroke="#3a414a" fill="none"/><path d="M724.35 756.48h-.5v-.96h.5z" stroke="#3a414a" stroke-width=".05" fill="#3a414a"/><path d="M750.77 756l-14.27 4.63v-9.26z" stroke="#3a414a" fill="#3a414a"/><path d="M724.34 876.7H736" stroke="#3a414a" fill="none"/><path d="M724.35 877.2h-.5v-.96h.5z" stroke="#3a414a" stroke-width=".05" fill="#3a414a"/><path d="M750.77 876.7l-14.27 4.65v-9.27z" stroke="#3a414a" fill="#3a414a"/><path d="M438.72 756h21.14a6 6 0 0 0 6-6V641.3a6 6 0 0 1 6-6h5.26" stroke="#3a414a" fill="none"/><path d="M438.74 756.48h-.64l.25-.96h.4z" stroke="#3a414a" stroke-width=".05" fill="#3a414a"/><path d="M491.88 635.3l-14.26 4.62v-9.27z" stroke="#3a414a" fill="#3a414a"/><path d="M438.72 756h38.4" stroke="#3a414a" fill="none"/><path d="M438.74 756.48h-.64l.25-.96h.4z" stroke="#3a414a" stroke-width=".05" fill="#3a414a"/><path d="M491.88 756l-14.26 4.63v-9.26z" stroke="#3a414a" fill="#3a414a"/><path d="M438.72 756h21.14a6 6 0 0 1 6 6v108.7a6 6 0 0 0 6 6h5.26" stroke="#3a414a" fill="none"/><path d="M438.74 756.48h-.64l.25-.96h.4z" stroke="#3a414a" stroke-width=".05" fill="#3a414a"/><path d="M491.88 876.7l-14.26 4.65v-9.27z" stroke="#3a414a" fill="#3a414a"/><path d="M221.28 997.1a6 6 0 0 1 6-6H444.6a6 6 0 0 1 6 6v88.67a6 6 0 0 1-6 6H227.3a6 6 0 0 1-6-6z" stroke="#3a414a" fill="#fcfcca"/><use xlink:href="#o" transform="matrix(1,0,0,1,233.27738665177299,1003.0982871125611) translate(13.555555555555571 42.989583333333336)"/><use xlink:href="#p" transform="matrix(1,0,0,1,233.27738665177299,1003.0982871125611) translate(139.25925925925924 42.989583333333336)"/><path d="M335.94 807.83V974.2" stroke="#3a414a" fill="none"/><path d="M336.42 807.85h-.95v-.52h.95z" stroke="#3a414a" stroke-width=".05" fill="#3a414a"/><path d="M335.94 988.98l-4.63-14.27h9.28z" stroke="#3a414a" fill="#3a414a"/><g fill="none"><path d="M492.55 564.9a6 6 0 0 1-6-6v-20.78a6 6 0 0 1 6-6H968.6a6 6 0 0 1 6 6v20.78a6 6 0 0 1-6 6z"/><path d="M974.6 564.9c0-5.52-4.47-10-10-10H740.6c-5.53 0-10-4.47-10-10 0 5.53-4.48 10-10 10H496.55c-5.53 0-10 4.48-10 10" stroke="#282c33" stroke-width="2"/></g><path d="M617.63 501.82a6 6 0 0 1 6-6h228a6 6 0 0 1 6 6v48a6 6 0 0 1-6 6h-228a6 6 0 0 1-6-6z" fill="none"/><use xlink:href="#q" transform="matrix(1,0,0,1,617.6320010875352,495.8170201196335) translate(64.48148148148147 35.333333333333336)"/><path d="M764.4 996.9a7.8 7.8 0 0 1 7.56-5.8h190.5a4.6 4.6 0 0 1 4.44 5.8l-23.75 89.07a7.8 7.8 0 0 1-7.54 5.8H745.13a4.6 4.6 0 0 1-4.46-5.8z" stroke="#3a414a" stroke-width="2" fill="#fff3d9"/><use xlink:href="#r" transform="matrix(1,0,0,1,744.1159597607394,996.098287112561) translate(83.2087037037037 35.55208333333333)"/><use xlink:href="#s" transform="matrix(1,0,0,1,744.1159597607394,996.098287112561) translate(90.61611111111111 35.55208333333333)"/><use xlink:href="#b" transform="matrix(1,0,0,1,744.1159597607394,996.098287112561) translate(36.8938888888889 67.55208333333333)"/><use xlink:href="#c" transform="matrix(1,0,0,1,744.1159597607394,996.098287112561) translate(88.74574074074076 67.55208333333333)"/><path d="M451.6 1041.43h283.52" stroke="#3a414a" fill="none"/><path d="M451.62 1041.9h-.5v-.94h.5z" stroke="#3a414a" stroke-width=".05" fill="#3a414a"/><path d="M749.9 1041.43l-14.28 4.64v-9.27z" stroke="#3a414a" fill="#3a414a"/><path d="M989.33 590.95a6 6 0 0 1 6-6h100.63a6 6 0 0 1 6 6v330.1a6 6 0 0 1-6 6H995.33a6 6 0 0 1-6-6z" stroke="#3a414a" fill="#fcfcca"/><use xlink:href="#t" transform="matrix(1,0,0,1,1001.3333333333329,596.9522586848714) translate(2.3148148148148096 165.88020833333334)"/><path d="M957.45 635.3h15.4a.05.05 0 0 0 .04-.06v-.05" stroke="#3a414a" fill="none"/><path d="M957.46 635.76h-.64l.25-.95h.4z" stroke="#3a414a" stroke-width=".05" fill="#3a414a"/><path d="M987.22 634.8l-14.14 5.03-.25-9.27z" stroke="#3a414a" fill="#3a414a"/><path d="M957.45 756h15" stroke="#3a414a" fill="none"/><path d="M957.46 756.48h-.64l.25-.96h.4z" stroke="#3a414a" stroke-width=".05" fill="#3a414a"/><path d="M987.2 756l-14.25 4.63v-9.26z" stroke="#3a414a" fill="#3a414a"/><path d="M957.45 876.7h15.4a.05.05 0 0 1 .04.06v.05" stroke="#3a414a" fill="none"/><path d="M957.46 877.2h-.64l.25-.96h.4z" stroke="#3a414a" stroke-width=".05" fill="#3a414a"/><path d="M987.22 877.2l-14.4 4.24.26-9.27z" stroke="#3a414a" fill="#3a414a"/><path d="M956.56 1041.43h83.1a6 6 0 0 0 6-6v-91.5" stroke="#3a414a" fill="none"/><path d="M956.58 1041.9h-.65l.26-.94h.38z" stroke="#3a414a" stroke-width=".05" fill="#3a414a"/><path d="M1045.65 929.17l4.63 14.26H1041z" stroke="#3a414a" fill="#3a414a"/><path d="M1143.3 590.75a7.8 7.8 0 0 1 7.54-5.8h190.5a4.6 4.6 0 0 1 4.45 5.8l-23.76 89.07a7.8 7.8 0 0 1-7.55 5.8H1124a4.6 4.6 0 0 1-4.45-5.8z" stroke="#3a414a" stroke-width="2" fill="#fff3d9"/><use xlink:href="#u" transform="matrix(1,0,0,1,1122.9999999999998,589.9522586855408) translate(65.43092592592593 35.55208333333333)"/><use xlink:href="#v" transform="matrix(1,0,0,1,1122.9999999999998,589.9522586855408) translate(39.19018518518519 67.55208333333333)"/><use xlink:href="#e" transform="matrix(1,0,0,1,1122.9999999999998,589.9522586855408) translate(129.41240740740741 67.55208333333333)"/><path d="M1143.3 711.46a7.8 7.8 0 0 1 7.54-5.8h190.5a4.6 4.6 0 0 1 4.45 5.8l-23.76 89.08a7.8 7.8 0 0 1-7.55 5.8H1124a4.6 4.6 0 0 1-4.45-5.8z" stroke="#3a414a" stroke-width="2" fill="#fff3d9"/><use xlink:href="#w" transform="matrix(1,0,0,1,1122.9999999999998,710.6666666673361) translate(65.43092592592593 35.55208333333333)"/><use xlink:href="#x" transform="matrix(1,0,0,1,1122.9999999999998,710.6666666673361) translate(52.48648148148148 67.55208333333333)"/><use xlink:href="#e" transform="matrix(1,0,0,1,1122.9999999999998,710.6666666673361) translate(116.11611111111111 67.55208333333333)"/><path d="M1143.3 832.18a7.8 7.8 0 0 1 7.54-5.8h190.5a4.6 4.6 0 0 1 4.45 5.8l-23.76 89.07a7.8 7.8 0 0 1-7.55 5.8H1124a4.6 4.6 0 0 1-4.45-5.8z" stroke="#3a414a" stroke-width="2" fill="#fff3d9"/><use xlink:href="#u" transform="matrix(1,0,0,1,1122.9999999999998,831.3810746491314) translate(65.43092592592593 35.55208333333333)"/><use xlink:href="#y" transform="matrix(1,0,0,1,1122.9999999999998,831.3810746491314) translate(38.44944444444446 67.55208333333333)"/><use xlink:href="#e" transform="matrix(1,0,0,1,1122.9999999999998,831.3810746491314) translate(130.15314814814815 67.55208333333333)"/><path d="M1114.54 634.75h-11.58" stroke="#3a414a" fill="none"/><path d="M1128.77 635.23l-14.4 4.16.3-9.28z" stroke="#3a414a" fill="#3a414a"/><path d="M1102.97 635.23h-.5v-.95h.5z" stroke="#3a414a" stroke-width=".05" fill="#3a414a"/><path d="M1114 756h-11.04" stroke="#3a414a" fill="none"/><path d="M1128.77 756l-14.27 4.63v-9.26z" stroke="#3a414a" fill="#3a414a"/><path d="M1102.97 756.48h-.5v-.96h.5z" stroke="#3a414a" stroke-width=".05" fill="#3a414a"/><path d="M1114.54 877.25h-11.58" stroke="#3a414a" fill="none"/><path d="M1128.77 876.77l-14.1 5.1-.3-9.25z" stroke="#3a414a" fill="#3a414a"/><path d="M1102.97 877.72h-.5v-.95h.5z" stroke="#3a414a" stroke-width=".05" fill="#3a414a"/><g fill="none"><path d="M995.33 564.9a6 6 0 0 1-6-6v-15.08a6 6 0 0 1 6-6h854.73a6 6 0 0 1 6 6v15.08a6 6 0 0 1-6 6z"/><path d="M1856.06 564.9c0-5.52-4.47-10-10-10H1432.7c-5.52 0-10-4.47-10-10 0 5.53-4.48 10-10 10H999.33c-5.52 0-10 4.48-10 10" stroke="#282c33" stroke-width="2"/></g><path d="M1171 513.82a6 6 0 0 1 6-6h482.58a6 6 0 0 1 6 6v37.57a6 6 0 0 1-6 6H1177a6 6 0 0 1-6-6z" fill="none"/><g><use xlink:href="#z" transform="matrix(1,0,0,1,1170.9999999999998,507.8170201196335) translate(220.9074074074074 30.333333333333336)"/></g><path d="M1375 590.95a6 6 0 0 1 6-6h212.63a6 6 0 0 1 6 6v88.67a6 6 0 0 1-6 6H1381a6 6 0 0 1-6-6z" stroke="#3a414a" fill="#fcfcca"/><g><use xlink:href="#A" transform="matrix(1,0,0,1,1386.9999999999998,596.952258684202) translate(39.09259259259259 28.552083333333336)"/><use xlink:href="#B" transform="matrix(1,0,0,1,1386.9999999999998,596.952258684202) translate(130.87037037037038 28.552083333333336)"/><use xlink:href="#C" transform="matrix(1,0,0,1,1386.9999999999998,596.952258684202) translate(1.3888888888888857 60.552083333333336)"/><use xlink:href="#D" transform="matrix(1,0,0,1,1386.9999999999998,596.952258684202) translate(103.46296296296295 60.552083333333336)"/></g><path d="M1335.45 635.3H1358.12" stroke="#3a414a" fill="none"/><path d="M1335.46 635.76h-.64l.25-.95h.4z" stroke="#3a414a" stroke-width=".05" fill="#3a414a"/><path d="M1372.88 635.3l-14.27 4.62.02-9.27z" stroke="#3a414a" fill="#3a414a"/><path d="M1646.3 590.75a7.8 7.8 0 0 1 7.54-5.8h190.5a4.6 4.6 0 0 1 4.45 5.8l-23.76 89.07a7.8 7.8 0 0 1-7.55 5.8H1627a4.6 4.6 0 0 1-4.45-5.8z" stroke="#3a414a" stroke-width="2" fill="#fff3d9"/><g><use xlink:href="#u" transform="matrix(1,0,0,1,1625.9999999999998,589.952258684202) translate(65.43092592592593 35.55208333333333)"/><use xlink:href="#v" transform="matrix(1,0,0,1,1625.9999999999998,589.952258684202) translate(39.19018518518519 67.55208333333333)"/><use xlink:href="#e" transform="matrix(1,0,0,1,1625.9999999999998,589.952258684202) translate(129.41240740740741 67.55208333333333)"/></g><path d="M1617 635.3H1600.63" stroke="#3a414a" fill="none"/><path d="M1631.77 635.3l-14.27 4.62v-9.27z" stroke="#3a414a" fill="#3a414a"/><path d="M1600.64 635.76h-.52v-.95h.52z" stroke="#3a414a" stroke-width=".05" fill="#3a414a"/><defs><path fill="#3a414a" d="M240 0l2-218c-23 76-54 145-80 218h-23L58-218 59 0H30v-248h44l77 211c21-75 51-140 76-211h43V0h-30" id="E"/><path fill="#3a414a" d="M100-194c63 0 86 42 84 106H49c0 40 14 67 53 68 26 1 43-12 49-29l28 8c-11 28-37 45-77 45C44 4 14-33 15-96c1-61 26-98 85-98zm52 81c6-60-76-77-97-28-3 7-6 17-6 28h103" id="F"/><path fill="#3a414a" d="M59-47c-2 24 18 29 38 22v24C64 9 27 4 27-40v-127H5v-23h24l9-43h21v43h35v23H59v120" id="G"/><path fill="#3a414a" d="M141-36C126-15 110 5 73 4 37 3 15-17 15-53c-1-64 63-63 125-63 3-35-9-54-41-54-24 1-41 7-42 31l-33-3c5-37 33-52 76-52 45 0 72 20 72 64v82c-1 20 7 32 28 27v20c-31 9-61-2-59-35zM48-53c0 20 12 33 32 33 41-3 63-29 60-74-43 2-92-5-92 41" id="H"/><path fill="#3a414a" d="M85-194c31 0 48 13 60 33l-1-100h32l1 261h-30c-2-10 0-23-3-31C134-8 116 4 85 4 32 4 16-35 15-94c0-66 23-100 70-100zm9 24c-40 0-46 34-46 75 0 40 6 74 45 74 42 0 51-32 51-76 0-42-9-74-50-73" id="I"/><g id="a"><use transform="matrix(0.07407407407407407,0,0,0.07407407407407407,0,0)" xlink:href="#E"/><use transform="matrix(0.07407407407407407,0,0,0.07407407407407407,22.148148148148145,0)" xlink:href="#F"/><use transform="matrix(0.07407407407407407,0,0,0.07407407407407407,36.96296296296296,0)" xlink:href="#G"/><use transform="matrix(0.07407407407407407,0,0,0.07407407407407407,44.37037037037037,0)" xlink:href="#H"/><use transform="matrix(0.07407407407407407,0,0,0.07407407407407407,59.185185185185176,0)" xlink:href="#I"/><use transform="matrix(0.07407407407407407,0,0,0.07407407407407407,73.99999999999999,0)" xlink:href="#H"/><use transform="matrix(0.07407407407407407,0,0,0.07407407407407407,88.8148148148148,0)" xlink:href="#G"/><use transform="matrix(0.07407407407407407,0,0,0.07407407407407407,96.2222222222222,0)" xlink:href="#H"/></g><path fill="#3a414a" d="M155-56V0h-30v-56H8v-25l114-167h33v167h35v25h-35zm-30-156c-27 46-58 90-88 131h88v-131" id="J"/><path fill="#3a414a" d="M27 0v-27h64v-190l-56 39v-29l58-41h29v221h61V0H27" id="K"/><path fill="#3a414a" d="M110-160c48 1 74 30 74 79 0 53-28 85-80 85-65 0-83-55-86-122-5-90 50-162 133-122 14 7 22 21 27 39l-31 6c-5-40-67-38-82-6-9 19-15 44-15 74 11-20 30-34 60-33zm-7 138c34 0 49-23 49-58s-16-56-50-56c-29 0-50 16-49 49 1 36 15 65 50 65" id="L"/><g id="b"><use transform="matrix(0.07407407407407407,0,0,0.07407407407407407,0,0)" xlink:href="#J"/><use transform="matrix(0.07407407407407407,0,0,0.07407407407407407,14.814814814814813,0)" xlink:href="#K"/><use transform="matrix(0.07407407407407407,0,0,0.07407407407407407,29.629629629629626,0)" xlink:href="#L"/></g><path fill="#3a414a" d="M30-248c87 1 191-15 191 75 0 78-77 80-158 76V0H30v-248zm33 125c57 0 124 11 124-50 0-59-68-47-124-48v98" id="M"/><path fill="#3a414a" d="M115-194c55 1 70 41 70 98S169 2 115 4C84 4 66-9 55-30l1 105H24l-1-265h31l2 30c10-21 28-34 59-34zm-8 174c40 0 45-34 45-75s-6-73-45-74c-42 0-51 32-51 76 0 43 10 73 51 73" id="N"/><path fill="#3a414a" d="M114-163C36-179 61-72 57 0H25l-1-190h30c1 12-1 29 2 39 6-27 23-49 58-41v29" id="O"/><path fill="#3a414a" d="M135-143c-3-34-86-38-87 0 15 53 115 12 119 90S17 21 10-45l28-5c4 36 97 45 98 0-10-56-113-15-118-90-4-57 82-63 122-42 12 7 21 19 24 35" id="P"/><g id="c"><use transform="matrix(0.07407407407407407,0,0,0.07407407407407407,0,0)" xlink:href="#M"/><use transform="matrix(0.07407407407407407,0,0,0.07407407407407407,17.77777777777778,0)" xlink:href="#H"/><use transform="matrix(0.07407407407407407,0,0,0.07407407407407407,32.592592592592595,0)" xlink:href="#N"/><use transform="matrix(0.07407407407407407,0,0,0.07407407407407407,47.407407407407405,0)" xlink:href="#F"/><use transform="matrix(0.07407407407407407,0,0,0.07407407407407407,62.22222222222221,0)" xlink:href="#O"/><use transform="matrix(0.07407407407407407,0,0,0.07407407407407407,71.03703703703702,0)" xlink:href="#P"/></g><path fill="#3a414a" d="M127-220V0H93v-220H8v-28h204v28h-85" id="Q"/><path fill="#3a414a" d="M106-169C34-169 62-67 57 0H25v-261h32l-1 103c12-21 28-36 61-36 89 0 53 116 60 194h-32v-121c2-32-8-49-39-48" id="R"/><path fill="#3a414a" d="M210-169c-67 3-38 105-44 169h-31v-121c0-29-5-50-35-48C34-165 62-65 56 0H25l-1-190h30c1 10-1 24 2 32 10-44 99-50 107 0 11-21 27-35 58-36 85-2 47 119 55 194h-31v-121c0-29-5-49-35-48" id="S"/><g id="d"><use transform="matrix(0.07407407407407407,0,0,0.07407407407407407,0,0)" xlink:href="#Q"/><use transform="matrix(0.07407407407407407,0,0,0.07407407407407407,16.22222222222222,0)" xlink:href="#R"/><use transform="matrix(0.07407407407407407,0,0,0.07407407407407407,31.037037037037035,0)" xlink:href="#F"/><use transform="matrix(0.07407407407407407,0,0,0.07407407407407407,45.85185185185185,0)" xlink:href="#S"/><use transform="matrix(0.07407407407407407,0,0,0.07407407407407407,68,0)" xlink:href="#F"/></g><path fill="#3a414a" d="M30 0v-248h33v221h125V0H30" id="T"/><path fill="#3a414a" d="M24-231v-30h32v30H24zM24 0v-190h32V0H24" id="U"/><g id="e"><use transform="matrix(0.07407407407407407,0,0,0.07407407407407407,0,0)" xlink:href="#T"/><use transform="matrix(0.07407407407407407,0,0,0.07407407407407407,14.814814814814813,0)" xlink:href="#U"/><use transform="matrix(0.07407407407407407,0,0,0.07407407407407407,20.666666666666664,0)" xlink:href="#P"/><use transform="matrix(0.07407407407407407,0,0,0.07407407407407407,34,0)" xlink:href="#G"/></g><path fill="#3a414a" d="M30 0v-248h187v28H63v79h144v27H63v87h162V0H30" id="V"/><path fill="#3a414a" d="M141 0L90-78 38 0H4l68-98-65-92h35l48 74 47-74h35l-64 92 68 98h-35" id="W"/><path fill="#3a414a" d="M96-169c-40 0-48 33-48 73s9 75 48 75c24 0 41-14 43-38l32 2c-6 37-31 61-74 61-59 0-76-41-82-99-10-93 101-131 147-64 4 7 5 14 7 22l-32 3c-4-21-16-35-41-35" id="X"/><path fill="#3a414a" d="M33-154v-36h34v36H33zM33 0v-36h34V0H33" id="Y"/><g id="f"><use transform="matrix(0.06172839506172839,0,0,0.06172839506172839,0,0)" xlink:href="#V"/><use transform="matrix(0.06172839506172839,0,0,0.06172839506172839,14.814814814814813,0)" xlink:href="#W"/><use transform="matrix(0.06172839506172839,0,0,0.06172839506172839,25.925925925925924,0)" xlink:href="#G"/><use transform="matrix(0.06172839506172839,0,0,0.06172839506172839,32.098765432098766,0)" xlink:href="#O"/><use transform="matrix(0.06172839506172839,0,0,0.06172839506172839,39.44444444444444,0)" xlink:href="#H"/><use transform="matrix(0.06172839506172839,0,0,0.06172839506172839,51.79012345679012,0)" xlink:href="#X"/><use transform="matrix(0.06172839506172839,0,0,0.06172839506172839,62.90123456790123,0)" xlink:href="#G"/><use transform="matrix(0.06172839506172839,0,0,0.06172839506172839,69.07407407407406,0)" xlink:href="#Y"/></g><path fill="#3a414a" d="M100-194c62-1 85 37 85 99 1 63-27 99-86 99S16-35 15-95c0-66 28-99 85-99zM99-20c44 1 53-31 53-75 0-43-8-75-51-75s-53 32-53 75 10 74 51 75" id="Z"/><path fill="#3a414a" d="M68-38c1 34 0 65-14 84H32c9-13 17-26 17-46H33v-38h35" id="aa"/><g id="g"><use transform="matrix(0.06172839506172839,0,0,0.06172839506172839,0,0)" xlink:href="#E"/><use transform="matrix(0.06172839506172839,0,0,0.06172839506172839,18.456790123456788,0)" xlink:href="#F"/><use transform="matrix(0.06172839506172839,0,0,0.06172839506172839,30.80246913580247,0)" xlink:href="#G"/><use transform="matrix(0.06172839506172839,0,0,0.06172839506172839,36.97530864197531,0)" xlink:href="#R"/><use transform="matrix(0.06172839506172839,0,0,0.06172839506172839,49.32098765432099,0)" xlink:href="#Z"/><use transform="matrix(0.06172839506172839,0,0,0.06172839506172839,61.666666666666664,0)" xlink:href="#I"/><use transform="matrix(0.06172839506172839,0,0,0.06172839506172839,74.01234567901234,0)" xlink:href="#aa"/></g><path fill="#3a414a" d="M117-194c89-4 53 116 60 194h-32v-121c0-31-8-49-39-48C34-167 62-67 57 0H25l-1-190h30c1 10-1 24 2 32 11-22 29-35 61-36" id="ab"/><g id="h"><use transform="matrix(0.06172839506172839,0,0,0.06172839506172839,0,0)" xlink:href="#Q"/><use transform="matrix(0.06172839506172839,0,0,0.06172839506172839,12.716049382716047,0)" xlink:href="#O"/><use transform="matrix(0.06172839506172839,0,0,0.06172839506172839,20.061728395061728,0)" xlink:href="#F"/><use transform="matrix(0.06172839506172839,0,0,0.06172839506172839,32.407407407407405,0)" xlink:href="#ab"/><use transform="matrix(0.06172839506172839,0,0,0.06172839506172839,44.75308641975308,0)" xlink:href="#I"/><use transform="matrix(0.06172839506172839,0,0,0.06172839506172839,57.09876543209876,0)" xlink:href="#aa"/></g><path fill="#3a414a" d="M145-31C134-9 116 4 85 4 32 4 16-35 15-94c0-59 17-99 70-100 32-1 48 14 60 33 0-11-1-24 2-32h30l-1 268h-32zM93-21c41 0 51-33 51-76s-8-73-50-73c-40 0-46 35-46 75s5 74 45 74" id="ac"/><path fill="#3a414a" d="M84 4C-5 8 30-112 23-190h32v120c0 31 7 50 39 49 72-2 45-101 50-169h31l1 190h-30c-1-10 1-25-2-33-11 22-28 36-60 37" id="ad"/><g id="i"><use transform="matrix(0.06172839506172839,0,0,0.06172839506172839,0,0)" xlink:href="#Q"/><use transform="matrix(0.06172839506172839,0,0,0.06172839506172839,11.049382716049381,0)" xlink:href="#F"/><use transform="matrix(0.06172839506172839,0,0,0.06172839506172839,23.39506172839506,0)" xlink:href="#X"/><use transform="matrix(0.06172839506172839,0,0,0.06172839506172839,34.50617283950617,0)" xlink:href="#R"/><use transform="matrix(0.06172839506172839,0,0,0.06172839506172839,46.85185185185185,0)" xlink:href="#ab"/><use transform="matrix(0.06172839506172839,0,0,0.06172839506172839,59.197530864197525,0)" xlink:href="#U"/><use transform="matrix(0.06172839506172839,0,0,0.06172839506172839,64.07407407407406,0)" xlink:href="#ac"/><use transform="matrix(0.06172839506172839,0,0,0.06172839506172839,76.41975308641975,0)" xlink:href="#ad"/><use transform="matrix(0.06172839506172839,0,0,0.06172839506172839,88.76543209876543,0)" xlink:href="#F"/></g><path fill="#3a414a" d="M30-248c118-7 216 8 213 122C240-48 200 0 122 0H30v-248zM63-27c89 8 146-16 146-99s-60-101-146-95v194" id="ae"/><g id="j"><use transform="matrix(0.06172839506172839,0,0,0.06172839506172839,0,0)" xlink:href="#ae"/><use transform="matrix(0.06172839506172839,0,0,0.06172839506172839,15.987654320987653,0)" xlink:href="#H"/><use transform="matrix(0.06172839506172839,0,0,0.06172839506172839,28.333333333333332,0)" xlink:href="#G"/><use transform="matrix(0.06172839506172839,0,0,0.06172839506172839,34.50617283950617,0)" xlink:href="#H"/></g><path fill="#3a414a" d="M179-190L93 31C79 59 56 82 12 73V49c39 6 53-20 64-50L1-190h34L92-34l54-156h33" id="af"/><g id="k"><use transform="matrix(0.06172839506172839,0,0,0.06172839506172839,0,0)" xlink:href="#Q"/><use transform="matrix(0.06172839506172839,0,0,0.06172839506172839,12.28395061728395,0)" xlink:href="#af"/><use transform="matrix(0.06172839506172839,0,0,0.06172839506172839,23.39506172839506,0)" xlink:href="#N"/><use transform="matrix(0.06172839506172839,0,0,0.06172839506172839,35.74074074074074,0)" xlink:href="#F"/></g><path fill="#3a414a" d="M233-177c-1 41-23 64-60 70L243 0h-38l-65-103H63V0H30v-248c88 3 205-21 203 71zM63-129c60-2 137 13 137-47 0-61-80-42-137-45v92" id="ag"/><path fill="#3a414a" d="M177-190C167-65 218 103 67 71c-23-6-38-20-44-43l32-5c15 47 100 32 89-28v-30C133-14 115 1 83 1 29 1 15-40 15-95c0-56 16-97 71-98 29-1 48 16 59 35 1-10 0-23 2-32h30zM94-22c36 0 50-32 50-73 0-42-14-75-50-75-39 0-46 34-46 75s6 73 46 73" id="ah"/><g id="l"><use transform="matrix(0.06172839506172839,0,0,0.06172839506172839,0,0)" xlink:href="#ag"/><use transform="matrix(0.06172839506172839,0,0,0.06172839506172839,15.987654320987653,0)" xlink:href="#F"/><use transform="matrix(0.06172839506172839,0,0,0.06172839506172839,28.333333333333332,0)" xlink:href="#ah"/><use transform="matrix(0.06172839506172839,0,0,0.06172839506172839,40.67901234567901,0)" xlink:href="#U"/><use transform="matrix(0.06172839506172839,0,0,0.06172839506172839,45.55555555555556,0)" xlink:href="#Z"/><use transform="matrix(0.06172839506172839,0,0,0.06172839506172839,57.901234567901234,0)" xlink:href="#ab"/></g><g id="m"><use transform="matrix(0.07407407407407407,0,0,0.07407407407407407,0,0)" xlink:href="#ae"/><use transform="matrix(0.07407407407407407,0,0,0.07407407407407407,19.185185185185183,0)" xlink:href="#H"/><use transform="matrix(0.07407407407407407,0,0,0.07407407407407407,34,0)" xlink:href="#G"/><use transform="matrix(0.07407407407407407,0,0,0.07407407407407407,41.407407407407405,0)" xlink:href="#H"/></g><g id="n"><use transform="matrix(0.07407407407407407,0,0,0.07407407407407407,0,0)" xlink:href="#ag"/><use transform="matrix(0.07407407407407407,0,0,0.07407407407407407,19.185185185185183,0)" xlink:href="#F"/><use transform="matrix(0.07407407407407407,0,0,0.07407407407407407,34,0)" xlink:href="#ah"/><use transform="matrix(0.07407407407407407,0,0,0.07407407407407407,48.81481481481481,0)" xlink:href="#U"/><use transform="matrix(0.07407407407407407,0,0,0.07407407407407407,54.66666666666666,0)" xlink:href="#Z"/><use transform="matrix(0.07407407407407407,0,0,0.07407407407407407,69.48148148148147,0)" xlink:href="#ab"/></g><path fill="#3a414a" d="M206 0h-36l-40-164L89 0H53L-1-190h32L70-26l43-164h34l41 164 42-164h31" id="ai"/><path fill="#3a414a" d="M24 0v-261h32V0H24" id="aj"/><g id="o"><use transform="matrix(0.07407407407407408,0,0,0.07407407407407408,0,0)" xlink:href="#ae"/><use transform="matrix(0.07407407407407408,0,0,0.07407407407407408,19.185185185185187,0)" xlink:href="#Z"/><use transform="matrix(0.07407407407407408,0,0,0.07407407407407408,34,0)" xlink:href="#ai"/><use transform="matrix(0.07407407407407408,0,0,0.07407407407407408,53.18518518518519,0)" xlink:href="#ab"/><use transform="matrix(0.07407407407407408,0,0,0.07407407407407408,68,0)" xlink:href="#aj"/><use transform="matrix(0.07407407407407408,0,0,0.07407407407407408,73.85185185185185,0)" xlink:href="#Z"/><use transform="matrix(0.07407407407407408,0,0,0.07407407407407408,88.66666666666666,0)" xlink:href="#H"/><use transform="matrix(0.07407407407407408,0,0,0.07407407407407408,103.48148148148147,0)" xlink:href="#I"/></g><path fill="#3a414a" d="M63-220v92h138v28H63V0H30v-248h175v28H63" id="ak"/><g id="p"><use transform="matrix(0.07407407407407408,0,0,0.07407407407407408,0,0)" xlink:href="#M"/><use transform="matrix(0.07407407407407408,0,0,0.07407407407407408,17.77777777777778,0)" xlink:href="#ae"/><use transform="matrix(0.07407407407407408,0,0,0.07407407407407408,36.96296296296296,0)" xlink:href="#ak"/></g><g id="q"><use transform="matrix(0.07407407407407408,0,0,0.07407407407407408,0,0)" xlink:href="#E"/><use transform="matrix(0.07407407407407408,0,0,0.07407407407407408,22.148148148148152,0)" xlink:href="#F"/><use transform="matrix(0.07407407407407408,0,0,0.07407407407407408,36.96296296296297,0)" xlink:href="#G"/><use transform="matrix(0.07407407407407408,0,0,0.07407407407407408,44.37037037037039,0)" xlink:href="#H"/><use transform="matrix(0.07407407407407408,0,0,0.07407407407407408,59.185185185185205,0)" xlink:href="#I"/><use transform="matrix(0.07407407407407408,0,0,0.07407407407407408,74.00000000000001,0)" xlink:href="#H"/><use transform="matrix(0.07407407407407408,0,0,0.07407407407407408,88.81481481481484,0)" xlink:href="#G"/><use transform="matrix(0.07407407407407408,0,0,0.07407407407407408,96.22222222222223,0)" xlink:href="#H"/></g><g id="s"><use transform="matrix(0.07407407407407407,0,0,0.07407407407407407,0,0)" xlink:href="#M"/><use transform="matrix(0.07407407407407407,0,0,0.07407407407407407,17.77777777777778,0)" xlink:href="#ae"/><use transform="matrix(0.07407407407407407,0,0,0.07407407407407407,36.96296296296296,0)" xlink:href="#ak"/></g><path fill="#3a414a" d="M185-189c-5-48-123-54-124 2 14 75 158 14 163 119 3 78-121 87-175 55-17-10-28-26-33-46l33-7c5 56 141 63 141-1 0-78-155-14-162-118-5-82 145-84 179-34 5 7 8 16 11 25" id="al"/><g id="t"><use transform="matrix(0.07407407407407408,0,0,0.07407407407407408,0,0)" xlink:href="#al"/><use transform="matrix(0.07407407407407408,0,0,0.07407407407407408,17.77777777777778,0)" xlink:href="#F"/><use transform="matrix(0.07407407407407408,0,0,0.07407407407407408,32.592592592592595,0)" xlink:href="#H"/><use transform="matrix(0.07407407407407408,0,0,0.07407407407407408,47.40740740740741,0)" xlink:href="#O"/><use transform="matrix(0.07407407407407408,0,0,0.07407407407407408,56.22222222222223,0)" xlink:href="#X"/><use transform="matrix(0.07407407407407408,0,0,0.07407407407407408,69.55555555555557,0)" xlink:href="#R"/></g><path fill="#3a414a" d="M108 0H70L1-190h34L89-25l56-165h34" id="am"/><g id="u"><use transform="matrix(0.07407407407407407,0,0,0.07407407407407407,0,0)" xlink:href="#ag"/><use transform="matrix(0.07407407407407407,0,0,0.07407407407407407,19.185185185185183,0)" xlink:href="#F"/><use transform="matrix(0.07407407407407407,0,0,0.07407407407407407,34,0)" xlink:href="#am"/><use transform="matrix(0.07407407407407407,0,0,0.07407407407407407,47.33333333333333,0)" xlink:href="#U"/><use transform="matrix(0.07407407407407407,0,0,0.07407407407407407,53.185185185185176,0)" xlink:href="#P"/><use transform="matrix(0.07407407407407407,0,0,0.07407407407407407,66.5185185185185,0)" xlink:href="#F"/><use transform="matrix(0.07407407407407407,0,0,0.07407407407407407,81.33333333333331,0)" xlink:href="#I"/></g><g id="v"><use transform="matrix(0.07407407407407407,0,0,0.07407407407407407,0,0)" xlink:href="#Q"/><use transform="matrix(0.07407407407407407,0,0,0.07407407407407407,16.22222222222222,0)" xlink:href="#R"/><use transform="matrix(0.07407407407407407,0,0,0.07407407407407407,31.037037037037035,0)" xlink:href="#F"/><use transform="matrix(0.07407407407407407,0,0,0.07407407407407407,45.85185185185185,0)" xlink:href="#S"/><use transform="matrix(0.07407407407407407,0,0,0.07407407407407407,68,0)" xlink:href="#F"/></g><g id="w"><use transform="matrix(0.07407407407407407,0,0,0.07407407407407407,0,0)" xlink:href="#ag"/><use transform="matrix(0.07407407407407407,0,0,0.07407407407407407,19.185185185185183,0)" xlink:href="#F"/><use transform="matrix(0.07407407407407407,0,0,0.07407407407407407,34,0)" xlink:href="#am"/><use transform="matrix(0.07407407407407407,0,0,0.07407407407407407,47.33333333333333,0)" xlink:href="#U"/><use transform="matrix(0.07407407407407407,0,0,0.07407407407407407,53.185185185185176,0)" xlink:href="#P"/><use transform="matrix(0.07407407407407407,0,0,0.07407407407407407,66.5185185185185,0)" xlink:href="#F"/><use transform="matrix(0.07407407407407407,0,0,0.07407407407407407,81.33333333333331,0)" xlink:href="#I"/></g><g id="x"><use transform="matrix(0.07407407407407407,0,0,0.07407407407407407,0,0)" xlink:href="#ae"/><use transform="matrix(0.07407407407407407,0,0,0.07407407407407407,19.185185185185183,0)" xlink:href="#H"/><use transform="matrix(0.07407407407407407,0,0,0.07407407407407407,34,0)" xlink:href="#G"/><use transform="matrix(0.07407407407407407,0,0,0.07407407407407407,41.407407407407405,0)" xlink:href="#H"/></g><g id="y"><use transform="matrix(0.07407407407407407,0,0,0.07407407407407407,0,0)" xlink:href="#ag"/><use transform="matrix(0.07407407407407407,0,0,0.07407407407407407,19.185185185185183,0)" xlink:href="#F"/><use transform="matrix(0.07407407407407407,0,0,0.07407407407407407,34,0)" xlink:href="#ah"/><use transform="matrix(0.07407407407407407,0,0,0.07407407407407407,48.81481481481481,0)" xlink:href="#U"/><use transform="matrix(0.07407407407407407,0,0,0.07407407407407407,54.66666666666666,0)" xlink:href="#Z"/><use transform="matrix(0.07407407407407407,0,0,0.07407407407407407,69.48148148148147,0)" xlink:href="#ab"/></g><g id="z"><use transform="matrix(0.07407407407407408,0,0,0.07407407407407408,0,0)" xlink:href="#M"/><use transform="matrix(0.07407407407407408,0,0,0.07407407407407408,17.77777777777778,0)" xlink:href="#ae"/><use transform="matrix(0.07407407407407408,0,0,0.07407407407407408,36.96296296296296,0)" xlink:href="#ak"/></g><g id="A"><use transform="matrix(0.07407407407407408,0,0,0.07407407407407408,0,0)" xlink:href="#al"/><use transform="matrix(0.07407407407407408,0,0,0.07407407407407408,17.77777777777778,0)" xlink:href="#F"/><use transform="matrix(0.07407407407407408,0,0,0.07407407407407408,32.592592592592595,0)" xlink:href="#H"/><use transform="matrix(0.07407407407407408,0,0,0.07407407407407408,47.40740740740741,0)" xlink:href="#O"/><use transform="matrix(0.07407407407407408,0,0,0.07407407407407408,56.22222222222223,0)" xlink:href="#X"/><use transform="matrix(0.07407407407407408,0,0,0.07407407407407408,69.55555555555557,0)" xlink:href="#R"/></g><path fill="#3a414a" d="M101-234c-31-9-42 10-38 44h38v23H63V0H32v-167H5v-23h27c-7-52 17-82 69-68v24" id="an"/><g id="B"><use transform="matrix(0.07407407407407408,0,0,0.07407407407407408,0,0)" xlink:href="#an"/><use transform="matrix(0.07407407407407408,0,0,0.07407407407407408,7.407407407407408,0)" xlink:href="#Z"/><use transform="matrix(0.07407407407407408,0,0,0.07407407407407408,22.222222222222225,0)" xlink:href="#O"/></g><path fill="#3a414a" d="M143 4C61 4 22-44 18-125c-5-107 100-154 193-111 17 8 29 25 37 43l-32 9c-13-25-37-40-76-40-61 0-88 39-88 99 0 61 29 100 91 101 35 0 62-11 79-27v-45h-74v-28h105v86C228-13 192 4 143 4" id="ao"/><g id="C"><use transform="matrix(0.07407407407407408,0,0,0.07407407407407408,0,0)" xlink:href="#ao"/><use transform="matrix(0.07407407407407408,0,0,0.07407407407407408,20.740740740740744,0)" xlink:href="#F"/><use transform="matrix(0.07407407407407408,0,0,0.07407407407407408,35.55555555555556,0)" xlink:href="#ab"/><use transform="matrix(0.07407407407407408,0,0,0.07407407407407408,50.370370370370374,0)" xlink:href="#F"/><use transform="matrix(0.07407407407407408,0,0,0.07407407407407408,65.18518518518519,0)" xlink:href="#O"/><use transform="matrix(0.07407407407407408,0,0,0.07407407407407408,74,0)" xlink:href="#H"/><use transform="matrix(0.07407407407407408,0,0,0.07407407407407408,88.81481481481481,0)" xlink:href="#aj"/></g><g id="D"><use transform="matrix(0.07407407407407408,0,0,0.07407407407407408,0,0)" xlink:href="#Q"/><use transform="matrix(0.07407407407407408,0,0,0.07407407407407408,16.222222222222225,0)" xlink:href="#R"/><use transform="matrix(0.07407407407407408,0,0,0.07407407407407408,31.03703703703704,0)" xlink:href="#F"/><use transform="matrix(0.07407407407407408,0,0,0.07407407407407408,45.851851851851855,0)" xlink:href="#S"/><use transform="matrix(0.07407407407407408,0,0,0.07407407407407408,68.00000000000001,0)" xlink:href="#F"/><use transform="matrix(0.07407407407407408,0,0,0.07407407407407408,82.81481481481484,0)" xlink:href="#P"/></g></defs></g></svg>